<?xml version="1.0" encoding="UTF-8"?>
<svg xmlns="http://www.w3.org/2000/svg" width="942.153" height="213.787" viewBox="-106.431 -106.893 942.153 213.787">
<title>Ana Cure – Estética &amp; Spa – Horizontal – Color</title>
<g id="logo"><g id="isotipo-pos" transform="translate(0 0)"><g id="isotipo"><g id="hojas"><g id="par-1"><path id="hoja-1-a" d="M21.615,-102.009c1.455,-0.536 1.765,-0.584 2.015,-0.307c0.093,0.103 0.44,0.856 0.772,1.673c4.151,10.23 3.728,21.486 -1.168,31.128c-1.53,3.013 -3.242,5.464 -5.67,8.12c-4.022,4.4 -9.007,7.821 -14.169,9.726c-2.373,0.876 -2.944,0.908 -2.944,0.168c0,-0.193 -0.253,-1.025 -0.563,-1.849c-1.235,-3.286 -1.892,-6.095 -2.394,-10.227c-0.209,-1.722 -0.157,-6.008 0.097,-7.968c0.402,-3.103 0.853,-5.071 1.795,-7.827c0.241,-0.704 0.47,-1.538 0.509,-1.852c0.059,-0.47 0.106,-0.572 0.265,-0.572c0.116,0 0.239,-0.112 0.307,-0.279c1.42,-3.504 4.346,-7.877 7.342,-10.975c3.75,-3.878 8.653,-7.059 13.805,-8.958" fill="#8323AB"/><path id="hoja-1-b" d="M-23.947,-101.259c0.083,-0.131 0.246,-0.228 0.384,-0.228c0.265,0 2.621,0.78 4.121,1.363c2.225,0.866 5.382,2.567 7.506,4.045c4.829,3.36 9.054,8.245 11.717,13.547c0.203,0.405 0.4,0.736 0.438,0.736c0.038,0 0.177,-0.102 0.31,-0.227l0.242,-0.227l-0.068,0.512c-0.058,0.437 -0.013,0.666 0.312,1.572c1.614,4.502 2.236,6.899 2.647,10.195c0.221,1.777 0.257,6.642 0.061,8.323c-0.388,3.326 -0.894,5.745 -1.751,8.373c-0.445,1.364 -0.442,1.727 0.013,1.727c0.334,0 0.079,0.243 -0.477,0.455c-0.401,0.153 -0.548,0.161 -1.09,0.058c-1.39,-0.264 -4.012,-1.232 -6.154,-2.272c-4.075,-1.978 -7.269,-4.264 -10.509,-7.522c-5.219,-5.247 -8.598,-11.656 -9.985,-18.937c-0.474,-2.489 -0.561,-3.493 -0.566,-6.547c-0.006,-3.946 0.221,-5.939 1.071,-9.386c0.425,-1.725 1.523,-5.157 1.779,-5.56" fill="#147B80"/><path id="solape-1" d="M0.452,-51.5c0,-0.193 -0.253,-1.025 -0.563,-1.849c-1.235,-3.286 -1.892,-6.095 -2.394,-10.227c-0.209,-1.722 -0.157,-6.008 0.097,-7.968c0.402,-3.103 0.853,-5.071 1.795,-7.827c0.241,-0.704 0.47,-1.538 0.509,-1.852c0.059,-0.47 0.106,-0.572 0.265,-0.572c0.015,0 0.03,-0.002 0.046,-0.006c0.005,0.004 0.008,0.006 0.011,0.006c0.038,0 0.177,-0.102 0.31,-0.227l0.242,-0.227l-0.068,0.512c-0.058,0.437 -0.013,0.666 0.312,1.572c1.614,4.502 2.236,6.899 2.647,10.195c0.221,1.777 0.257,6.642 0.061,8.323c-0.388,3.326 -0.894,5.745 -1.751,8.373c-0.445,1.364 -0.442,1.727 0.013,1.727c0.334,0 0.079,0.243 -0.477,0.455c-0.116,0.044 -0.211,0.077 -0.3,0.097c-0.576,0.083 -0.756,-0.089 -0.756,-0.504z" fill="#252474"/></g><g id="par-2"><path id="hoja-2-a" d="M91.657,-50.176c1.408,0.65 1.661,0.835 1.642,1.208c-0.007,0.138 -0.294,0.916 -0.637,1.729c-4.299,10.169 -12.556,17.829 -22.837,21.185c-3.212,1.049 -6.156,1.572 -9.751,1.733c-5.955,0.267 -11.899,-0.838 -16.897,-3.142c-2.298,-1.059 -2.724,-1.439 -2.2,-1.963c0.136,-0.136 0.546,-0.904 0.909,-1.705c1.451,-3.197 2.972,-5.647 5.539,-8.924c1.07,-1.365 4.137,-4.359 5.703,-5.566c2.478,-1.91 4.189,-2.983 6.804,-4.265c0.668,-0.328 1.419,-0.755 1.67,-0.95c0.374,-0.291 0.48,-0.33 0.592,-0.217c0.082,0.082 0.248,0.09 0.414,0.019c3.482,-1.474 8.643,-2.497 12.953,-2.569c5.394,-0.09 11.11,1.127 16.096,3.427" fill="#8323AB"/><path id="hoja-2-b" d="M58.909,-81.863c0.152,-0.034 0.336,0.013 0.433,0.11c0.187,0.187 1.302,2.405 1.95,3.878c0.961,2.185 1.99,5.621 2.447,8.168c1.039,5.79 0.572,12.232 -1.294,17.865c-0.142,0.43 -0.237,0.803 -0.211,0.83c0.027,0.027 0.197,0.053 0.38,0.059l0.331,0.01l-0.41,0.314c-0.35,0.268 -0.48,0.462 -0.891,1.332c-2.043,4.325 -3.298,6.46 -5.338,9.081c-1.1,1.413 -4.515,4.879 -5.842,5.929c-2.626,2.078 -4.694,3.43 -7.158,4.682c-1.279,0.65 -1.534,0.908 -1.212,1.231c0.236,0.236 -0.115,0.228 -0.659,-0.015c-0.392,-0.175 -0.501,-0.274 -0.812,-0.729c-0.796,-1.169 -1.966,-3.708 -2.745,-5.958c-1.483,-4.28 -2.125,-8.155 -2.112,-12.75c0.02,-7.4 2.162,-14.322 6.33,-20.451c1.425,-2.095 2.073,-2.867 4.229,-5.03c2.786,-2.795 4.355,-4.043 7.394,-5.88c1.52,-0.919 4.723,-2.569 5.19,-2.674" fill="#147B80"/><path id="solape-2" d="M40.977,-29.426c0.136,-0.136 0.546,-0.904 0.909,-1.705c1.451,-3.197 2.972,-5.647 5.539,-8.924c1.07,-1.365 4.137,-4.359 5.703,-5.566c2.478,-1.91 4.189,-2.983 6.804,-4.265c0.668,-0.328 1.419,-0.755 1.67,-0.95c0.374,-0.291 0.48,-0.33 0.592,-0.217c0.011,0.011 0.023,0.02 0.036,0.028c0.001,0.006 0.002,0.01 0.004,0.012c0.027,0.027 0.197,0.053 0.38,0.059l0.331,0.01l-0.41,0.314c-0.35,0.268 -0.48,0.462 -0.891,1.332c-2.043,4.325 -3.298,6.46 -5.338,9.081c-1.1,1.413 -4.515,4.879 -5.842,5.929c-2.626,2.078 -4.694,3.43 -7.158,4.682c-1.279,0.65 -1.534,0.908 -1.212,1.231c0.236,0.236 -0.115,0.228 -0.659,-0.015c-0.114,-0.051 -0.203,-0.095 -0.281,-0.144c-0.467,-0.349 -0.472,-0.597 -0.178,-0.891z" fill="#252474"/></g><g id="par-3"><path id="hoja-3-a" d="M101.994,21.524c0.536,1.455 0.584,1.765 0.307,2.015c-0.103,0.093 -0.856,0.44 -1.673,0.772c-10.23,4.151 -21.486,3.728 -31.128,-1.168c-3.013,-1.53 -5.464,-3.242 -8.12,-5.67c-4.4,-4.022 -7.821,-9.007 -9.726,-14.169c-0.876,-2.373 -0.908,-2.944 -0.168,-2.944c0.193,0 1.025,-0.253 1.849,-0.563c3.286,-1.235 6.095,-1.892 10.227,-2.394c1.722,-0.209 6.008,-0.157 7.968,0.097c3.103,0.402 5.071,0.853 7.827,1.795c0.704,0.241 1.538,0.47 1.852,0.509c0.47,0.059 0.572,0.106 0.572,0.265c0,0.116 0.112,0.239 0.279,0.307c3.504,1.42 7.877,4.346 10.975,7.342c3.878,3.75 7.059,8.653 8.958,13.805" fill="#8323AB"/><path id="hoja-3-b" d="M101.244,-24.038c0.131,0.083 0.228,0.246 0.228,0.384c0,0.265 -0.78,2.621 -1.363,4.121c-0.866,2.225 -2.567,5.382 -4.045,7.506c-3.36,4.829 -8.245,9.054 -13.547,11.717c-0.405,0.203 -0.736,0.4 -0.736,0.438c0,0.038 0.102,0.177 0.227,0.31l0.227,0.242l-0.512,-0.068c-0.437,-0.058 -0.666,-0.013 -1.572,0.312c-4.502,1.614 -6.899,2.236 -10.195,2.647c-1.777,0.221 -6.642,0.257 -8.323,0.061c-3.326,-0.388 -5.745,-0.894 -8.373,-1.751c-1.364,-0.445 -1.727,-0.442 -1.727,0.013c0,0.334 -0.243,0.079 -0.455,-0.477c-0.153,-0.401 -0.161,-0.548 -0.058,-1.09c0.264,-1.39 1.232,-4.012 2.272,-6.154c1.978,-4.075 4.264,-7.269 7.522,-10.509c5.247,-5.219 11.656,-8.598 18.937,-9.985c2.489,-0.474 3.493,-0.561 6.547,-0.566c3.946,-0.006 5.939,0.221 9.386,1.071c1.725,0.425 5.157,1.523 5.56,1.779" fill="#147B80"/><path id="solape-3" d="M51.486,0.361c0.193,0 1.025,-0.253 1.849,-0.563c3.286,-1.235 6.095,-1.892 10.227,-2.394c1.722,-0.209 6.008,-0.157 7.968,0.097c3.103,0.402 5.071,0.853 7.827,1.795c0.704,0.241 1.538,0.47 1.852,0.509c0.47,0.059 0.572,0.106 0.572,0.265c0,0.015 0.002,0.03 0.006,0.046c-0.004,0.005 -0.006,0.008 -0.006,0.011c0,0.038 0.102,0.177 0.227,0.31l0.227,0.242l-0.512,-0.068c-0.437,-0.058 -0.666,-0.013 -1.572,0.312c-4.502,1.614 -6.899,2.236 -10.195,2.647c-1.777,0.221 -6.642,0.257 -8.323,0.061c-3.326,-0.388 -5.745,-0.894 -8.373,-1.751c-1.364,-0.445 -1.727,-0.442 -1.727,0.013c0,0.334 -0.243,0.079 -0.455,-0.477c-0.044,-0.116 -0.077,-0.211 -0.097,-0.3c-0.083,-0.576 0.089,-0.756 0.504,-0.756z" fill="#252474"/></g><g id="par-4"><path id="hoja-4-a" d="M55.215,95.117c-0.65,1.408 -0.835,1.661 -1.208,1.642c-0.138,-0.007 -0.916,-0.294 -1.729,-0.637c-10.169,-4.299 -17.829,-12.556 -21.185,-22.837c-1.049,-3.212 -1.572,-6.156 -1.733,-9.751c-0.267,-5.955 0.838,-11.899 3.142,-16.897c1.059,-2.298 1.439,-2.724 1.963,-2.2c0.136,0.136 0.904,0.546 1.705,0.909c3.197,1.451 5.647,2.972 8.924,5.539c1.365,1.07 4.359,4.137 5.566,5.703c1.91,2.478 2.983,4.189 4.265,6.804c0.328,0.668 0.755,1.419 0.95,1.67c0.291,0.374 0.33,0.48 0.217,0.592c-0.082,0.082 -0.09,0.248 -0.019,0.414c1.474,3.482 2.497,8.643 2.569,12.953c0.09,5.394 -1.127,11.11 -3.427,16.096" fill="#8323AB"/><path id="hoja-4-b" d="M86.903,62.369c0.034,0.152 -0.013,0.336 -0.11,0.433c-0.187,0.187 -2.405,1.302 -3.878,1.95c-2.185,0.961 -5.621,1.99 -8.168,2.447c-5.79,1.039 -12.232,0.572 -17.865,-1.294c-0.43,-0.142 -0.803,-0.237 -0.83,-0.211c-0.027,0.027 -0.053,0.197 -0.059,0.38l-0.01,0.331l-0.314,-0.41c-0.268,-0.35 -0.462,-0.48 -1.332,-0.891c-4.325,-2.043 -6.46,-3.298 -9.081,-5.338c-1.413,-1.1 -4.879,-4.515 -5.929,-5.842c-2.078,-2.626 -3.43,-4.694 -4.682,-7.158c-0.65,-1.279 -0.908,-1.534 -1.231,-1.212c-0.236,0.236 -0.228,-0.115 0.015,-0.659c0.175,-0.392 0.274,-0.501 0.729,-0.812c1.169,-0.796 3.708,-1.966 5.958,-2.745c4.28,-1.483 8.155,-2.125 12.75,-2.112c7.4,0.02 14.322,2.162 20.451,6.33c2.095,1.425 2.867,2.073 5.03,4.229c2.795,2.786 4.043,4.355 5.88,7.394c0.919,1.52 2.569,4.723 2.674,5.19" fill="#147B80"/><path id="solape-4" d="M34.465,44.437c0.136,0.136 0.904,0.546 1.705,0.909c3.197,1.451 5.647,2.972 8.924,5.539c1.365,1.07 4.359,4.137 5.566,5.703c1.91,2.478 2.983,4.189 4.265,6.804c0.328,0.668 0.755,1.419 0.95,1.67c0.291,0.374 0.33,0.48 0.217,0.592c-0.011,0.011 -0.02,0.023 -0.028,0.036c-0.006,0.001 -0.01,0.002 -0.012,0.004c-0.027,0.027 -0.053,0.197 -0.059,0.38l-0.01,0.331l-0.314,-0.41c-0.268,-0.35 -0.462,-0.48 -1.332,-0.891c-4.325,-2.043 -6.46,-3.298 -9.081,-5.338c-1.413,-1.1 -4.879,-4.515 -5.929,-5.842c-2.078,-2.626 -3.43,-4.694 -4.682,-7.158c-0.65,-1.279 -0.908,-1.534 -1.231,-1.212c-0.236,0.236 -0.228,-0.115 0.015,-0.659c0.051,-0.114 0.095,-0.203 0.144,-0.281c0.349,-0.467 0.597,-0.472 0.891,-0.178z" fill="#252474"/></g><g id="par-5"><path id="hoja-5-a" d="M-21.455,101.925c-1.455,0.536 -1.765,0.584 -2.015,0.307c-0.093,-0.103 -0.44,-0.856 -0.772,-1.673c-4.151,-10.23 -3.728,-21.486 1.168,-31.128c1.53,-3.013 3.242,-5.464 5.67,-8.12c4.022,-4.4 9.007,-7.821 14.169,-9.726c2.373,-0.876 2.944,-0.908 2.944,-0.168c0,0.193 0.253,1.025 0.563,1.849c1.235,3.286 1.892,6.095 2.394,10.227c0.209,1.722 0.157,6.008 -0.097,7.968c-0.402,3.103 -0.853,5.071 -1.795,7.827c-0.241,0.704 -0.47,1.538 -0.509,1.852c-0.059,0.47 -0.106,0.572 -0.265,0.572c-0.116,0 -0.239,0.112 -0.307,0.279c-1.42,3.504 -4.346,7.877 -7.342,10.975c-3.75,3.878 -8.653,7.059 -13.805,8.958" fill="#8323AB"/><path id="hoja-5-b" d="M24.108,101.175c-0.083,0.131 -0.246,0.228 -0.384,0.228c-0.265,0 -2.621,-0.78 -4.121,-1.363c-2.225,-0.866 -5.382,-2.567 -7.506,-4.045c-4.829,-3.36 -9.054,-8.245 -11.717,-13.547c-0.203,-0.405 -0.4,-0.736 -0.438,-0.736c-0.038,0 -0.177,0.102 -0.31,0.227l-0.242,0.227l0.068,-0.512c0.058,-0.437 0.013,-0.666 -0.312,-1.572c-1.614,-4.502 -2.236,-6.899 -2.647,-10.195c-0.221,-1.777 -0.257,-6.642 -0.061,-8.323c0.388,-3.326 0.894,-5.745 1.751,-8.373c0.445,-1.364 0.442,-1.727 -0.013,-1.727c-0.334,0 -0.079,-0.243 0.477,-0.455c0.401,-0.153 0.548,-0.161 1.09,-0.058c1.39,0.264 4.012,1.232 6.154,2.272c4.075,1.978 7.269,4.264 10.509,7.522c5.219,5.247 8.598,11.656 9.985,18.937c0.474,2.489 0.561,3.493 0.566,6.547c0.006,3.946 -0.221,5.939 -1.071,9.386c-0.425,1.725 -1.523,5.157 -1.779,5.56" fill="#147B80"/><path id="solape-5" d="M-0.291,51.416c0,0.193 0.253,1.025 0.563,1.849c1.235,3.286 1.892,6.095 2.394,10.227c0.209,1.722 0.157,6.008 -0.097,7.968c-0.402,3.103 -0.853,5.071 -1.795,7.827c-0.241,0.704 -0.47,1.538 -0.509,1.852c-0.059,0.47 -0.106,0.572 -0.265,0.572c-0.015,0 -0.03,0.002 -0.046,0.006c-0.005,-0.004 -0.008,-0.006 -0.011,-0.006c-0.038,0 -0.177,0.102 -0.31,0.227l-0.242,0.227l0.068,-0.512c0.058,-0.437 0.013,-0.666 -0.312,-1.572c-1.614,-4.502 -2.236,-6.899 -2.647,-10.195c-0.221,-1.777 -0.257,-6.642 -0.061,-8.323c0.388,-3.326 0.894,-5.745 1.751,-8.373c0.445,-1.364 0.442,-1.727 -0.013,-1.727c-0.334,0 -0.079,-0.243 0.477,-0.455c0.116,-0.044 0.211,-0.077 0.3,-0.097c0.576,-0.083 0.756,0.089 0.756,0.504z" fill="#252474"/></g><g id="par-6"><path id="hoja-6-a" d="M-89.861,58.698c-1.408,-0.65 -1.661,-0.835 -1.642,-1.208c0.007,-0.138 0.294,-0.916 0.637,-1.729c4.299,-10.169 12.556,-17.829 22.837,-21.185c3.212,-1.049 6.156,-1.572 9.751,-1.733c5.955,-0.267 11.899,0.838 16.897,3.142c2.298,1.059 2.724,1.439 2.2,1.963c-0.136,0.136 -0.546,0.904 -0.909,1.705c-1.451,3.197 -2.972,5.647 -5.539,8.924c-1.07,1.365 -4.137,4.359 -5.703,5.566c-2.478,1.91 -4.189,2.983 -6.804,4.265c-0.668,0.328 -1.419,0.755 -1.67,0.95c-0.374,0.291 -0.48,0.33 -0.592,0.217c-0.082,-0.082 -0.248,-0.09 -0.414,-0.019c-3.482,1.474 -8.643,2.497 -12.953,2.569c-5.394,0.09 -11.11,-1.127 -16.096,-3.427" fill="#8323AB"/><path id="hoja-6-b" d="M-57.114,90.386c-0.152,0.034 -0.336,-0.013 -0.433,-0.11c-0.187,-0.187 -1.302,-2.405 -1.95,-3.878c-0.961,-2.185 -1.99,-5.621 -2.447,-8.168c-1.039,-5.79 -0.572,-12.232 1.294,-17.865c0.142,-0.43 0.237,-0.803 0.211,-0.83c-0.027,-0.027 -0.197,-0.053 -0.38,-0.059l-0.331,-0.01l0.41,-0.314c0.35,-0.268 0.48,-0.462 0.891,-1.332c2.043,-4.325 3.298,-6.46 5.338,-9.081c1.1,-1.413 4.515,-4.879 5.842,-5.929c2.626,-2.078 4.694,-3.43 7.158,-4.682c1.279,-0.65 1.534,-0.908 1.212,-1.231c-0.236,-0.236 0.115,-0.228 0.659,0.015c0.392,0.175 0.501,0.274 0.812,0.729c0.796,1.169 1.966,3.708 2.745,5.958c1.483,4.28 2.125,8.155 2.112,12.75c-0.02,7.4 -2.162,14.322 -6.33,20.451c-1.425,2.095 -2.073,2.867 -4.229,5.03c-2.786,2.795 -4.355,4.043 -7.394,5.88c-1.52,0.919 -4.723,2.569 -5.19,2.674" fill="#147B80"/><path id="solape-6" d="M-39.182,37.948c-0.136,0.136 -0.546,0.904 -0.909,1.705c-1.451,3.197 -2.972,5.647 -5.539,8.924c-1.07,1.365 -4.137,4.359 -5.703,5.566c-2.478,1.91 -4.189,2.983 -6.804,4.265c-0.668,0.328 -1.419,0.755 -1.67,0.95c-0.374,0.291 -0.48,0.33 -0.592,0.217c-0.011,-0.011 -0.023,-0.02 -0.036,-0.028c-0.001,-0.006 -0.002,-0.01 -0.004,-0.012c-0.027,-0.027 -0.197,-0.053 -0.38,-0.059l-0.331,-0.01l0.41,-0.314c0.35,-0.268 0.48,-0.462 0.891,-1.332c2.043,-4.325 3.298,-6.46 5.338,-9.081c1.1,-1.413 4.515,-4.879 5.842,-5.929c2.626,-2.078 4.694,-3.43 7.158,-4.682c1.279,-0.65 1.534,-0.908 1.212,-1.231c-0.236,-0.236 0.115,-0.228 0.659,0.015c0.114,0.051 0.203,0.095 0.281,0.144c0.467,0.349 0.472,0.597 0.178,0.891z" fill="#252474"/></g><g id="par-7"><path id="hoja-7-a" d="M-101.79,-21.609c-0.536,-1.455 -0.584,-1.765 -0.307,-2.015c0.103,-0.093 0.856,-0.44 1.673,-0.772c10.23,-4.151 21.486,-3.728 31.128,1.168c3.013,1.53 5.464,3.242 8.12,5.67c4.4,4.022 7.821,9.007 9.726,14.169c0.876,2.373 0.908,2.944 0.168,2.944c-0.193,0 -1.025,0.253 -1.849,0.563c-3.286,1.235 -6.095,1.892 -10.227,2.394c-1.722,0.209 -6.008,0.157 -7.968,-0.097c-3.103,-0.402 -5.071,-0.853 -7.827,-1.795c-0.704,-0.241 -1.538,-0.47 -1.852,-0.509c-0.47,-0.059 -0.572,-0.106 -0.572,-0.265c0,-0.116 -0.112,-0.239 -0.279,-0.307c-3.504,-1.42 -7.877,-4.346 -10.975,-7.342c-3.878,-3.75 -7.059,-8.653 -8.958,-13.805" fill="#8323AB"/><path id="hoja-7-b" d="M-101.04,23.953c-0.131,-0.083 -0.228,-0.246 -0.228,-0.384c0,-0.265 0.78,-2.621 1.363,-4.121c0.866,-2.225 2.567,-5.382 4.045,-7.506c3.36,-4.829 8.245,-9.054 13.547,-11.717c0.405,-0.203 0.736,-0.4 0.736,-0.438c0,-0.038 -0.102,-0.177 -0.227,-0.31l-0.227,-0.242l0.512,0.068c0.437,0.058 0.666,0.013 1.572,-0.312c4.502,-1.614 6.899,-2.236 10.195,-2.647c1.777,-0.221 6.642,-0.257 8.323,-0.061c3.326,0.388 5.745,0.894 8.373,1.751c1.364,0.445 1.727,0.442 1.727,-0.013c0,-0.334 0.243,-0.079 0.455,0.477c0.153,0.401 0.161,0.548 0.058,1.09c-0.264,1.39 -1.232,4.012 -2.272,6.154c-1.978,4.075 -4.264,7.269 -7.522,10.509c-5.247,5.219 -11.656,8.598 -18.937,9.985c-2.489,0.474 -3.493,0.561 -6.547,0.566c-3.946,0.006 -5.939,-0.221 -9.386,-1.071c-1.725,-0.425 -5.157,-1.523 -5.56,-1.779" fill="#147B80"/><path id="solape-7" d="M-51.281,-0.446c-0.193,0 -1.025,0.253 -1.849,0.563c-3.286,1.235 -6.095,1.892 -10.227,2.394c-1.722,0.209 -6.008,0.157 -7.968,-0.097c-3.103,-0.402 -5.071,-0.853 -7.827,-1.795c-0.704,-0.241 -1.538,-0.47 -1.852,-0.509c-0.47,-0.059 -0.572,-0.106 -0.572,-0.265c0,-0.015 -0.002,-0.03 -0.006,-0.046c0.004,-0.005 0.006,-0.008 0.006,-0.011c0,-0.038 -0.102,-0.177 -0.227,-0.31l-0.227,-0.242l0.512,0.068c0.437,0.058 0.666,0.013 1.572,-0.312c4.502,-1.614 6.899,-2.236 10.195,-2.647c1.777,-0.221 6.642,-0.257 8.323,-0.061c3.326,0.388 5.745,0.894 8.373,1.751c1.364,0.445 1.727,0.442 1.727,-0.013c0,-0.334 0.243,-0.079 0.455,0.477c0.044,0.116 0.077,0.211 0.097,0.3c0.083,0.576 -0.089,0.756 -0.504,0.756z" fill="#252474"/></g><g id="par-8"><path id="hoja-8-a" d="M-53.559,-86.696c0.65,-1.408 0.835,-1.661 1.208,-1.642c0.138,0.007 0.916,0.294 1.729,0.637c10.169,4.299 17.829,12.556 21.185,22.837c1.049,3.212 1.572,6.156 1.733,9.751c0.267,5.955 -0.838,11.899 -3.142,16.897c-1.059,2.298 -1.439,2.724 -1.963,2.2c-0.136,-0.136 -0.904,-0.546 -1.705,-0.909c-3.197,-1.451 -5.647,-2.972 -8.924,-5.539c-1.365,-1.07 -4.359,-4.137 -5.566,-5.703c-1.91,-2.478 -2.983,-4.189 -4.265,-6.804c-0.328,-0.668 -0.755,-1.419 -0.95,-1.67c-0.291,-0.374 -0.33,-0.48 -0.217,-0.592c0.082,-0.082 0.09,-0.248 0.019,-0.414c-1.474,-3.482 -2.497,-8.643 -2.569,-12.953c-0.09,-5.394 1.127,-11.11 3.427,-16.096" fill="#8323AB"/><path id="hoja-8-b" d="M-85.246,-53.949c-0.034,-0.152 0.013,-0.336 0.11,-0.433c0.187,-0.187 2.405,-1.302 3.878,-1.95c2.185,-0.961 5.621,-1.99 8.168,-2.447c5.79,-1.039 12.232,-0.572 17.865,1.294c0.43,0.142 0.803,0.237 0.83,0.211c0.027,-0.027 0.053,-0.197 0.059,-0.38l0.01,-0.331l0.314,0.41c0.268,0.35 0.462,0.48 1.332,0.891c4.325,2.043 6.46,3.298 9.081,5.338c1.413,1.1 4.879,4.515 5.929,5.842c2.078,2.626 3.43,4.694 4.682,7.158c0.65,1.279 0.908,1.534 1.231,1.212c0.236,-0.236 0.228,0.115 -0.015,0.659c-0.175,0.392 -0.274,0.501 -0.729,0.812c-1.169,0.796 -3.708,1.966 -5.958,2.745c-4.28,1.483 -8.155,2.125 -12.75,2.112c-7.4,-0.02 -14.322,-2.162 -20.451,-6.33c-2.095,-1.425 -2.867,-2.073 -5.03,-4.229c-2.795,-2.786 -4.043,-4.355 -5.88,-7.394c-0.919,-1.52 -2.569,-4.723 -2.674,-5.19" fill="#147B80"/><path id="solape-8" d="M-32.808,-36.017c-0.136,-0.136 -0.904,-0.546 -1.705,-0.909c-3.197,-1.451 -5.647,-2.972 -8.924,-5.539c-1.365,-1.07 -4.359,-4.137 -5.566,-5.703c-1.91,-2.478 -2.983,-4.189 -4.265,-6.804c-0.328,-0.668 -0.755,-1.419 -0.95,-1.67c-0.291,-0.374 -0.33,-0.48 -0.217,-0.592c0.011,-0.011 0.02,-0.023 0.028,-0.036c0.006,-0.001 0.01,-0.002 0.012,-0.004c0.027,-0.027 0.053,-0.197 0.059,-0.38l0.01,-0.331l0.314,0.41c0.268,0.35 0.462,0.48 1.332,0.891c4.325,2.043 6.46,3.298 9.081,5.338c1.413,1.1 4.879,4.515 5.929,5.842c2.078,2.626 3.43,4.694 4.682,7.158c0.65,1.279 0.908,1.534 1.231,1.212c0.236,-0.236 0.228,0.115 -0.015,0.659c-0.051,0.114 -0.095,0.203 -0.144,0.281c-0.349,0.467 -0.597,0.472 -0.891,0.178z" fill="#252474"/></g></g><g id="puntos"><circle id="punto-1" cx="-0.001" cy="-99.98" r="4.591" fill="#561D87"/><circle id="punto-2" cx="74.983" cy="-63.931" r="4.591" fill="#561D87"/><circle id="punto-3" cx="100" cy="0.018" r="4.591" fill="#561D87"/><circle id="punto-4" cx="69.078" cy="78.397" r="4.591" fill="#561D87"/><circle id="punto-5" cx="0.122" cy="99.575" r="4.591" fill="#561D87"/><circle id="punto-6" cx="-73.25" cy="72.496" r="4.591" fill="#561D87"/><circle id="punto-7" cx="-99.84" cy="-0.078" r="4.591" fill="#561D87"/><circle id="punto-8" cx="-67.456" cy="-70.107" r="4.591" fill="#561D87"/></g><path id="monograma-A" d="M10.226,-34.006c0.307,-0.145 0.567,-0.266 0.577,-0.268c0.011,-0.002 0.17,0.135 0.355,0.304l0.336,0.307l0.059,-0.231c0.054,-0.211 0.075,-0.196 0.228,0.162c0.093,0.216 0.169,0.438 0.169,0.494c0,0.13 0.25,0.915 0.705,2.209c0.069,0.195 0.163,0.492 0.208,0.66c0.046,0.167 0.14,0.464 0.208,0.66c0.069,0.195 0.181,0.515 0.249,0.711c0.068,0.195 0.204,0.629 0.301,0.964c0.097,0.335 0.234,0.769 0.305,0.964c0.07,0.195 0.206,0.606 0.301,0.914c0.095,0.307 0.234,0.718 0.307,0.914c0.074,0.195 0.28,0.835 0.458,1.421c0.178,0.586 0.388,1.216 0.467,1.399c0.079,0.183 0.143,0.399 0.143,0.479c0,0.08 0.064,0.295 0.141,0.479c0.078,0.183 0.425,1.224 0.772,2.313c0.347,1.089 0.688,2.139 0.758,2.335c0.287,0.802 0.381,1.08 0.461,1.37c0.046,0.167 0.14,0.464 0.208,0.66c0.278,0.792 0.39,1.12 0.798,2.335c0.234,0.698 0.466,1.406 0.514,1.573c0.049,0.167 0.255,0.761 0.458,1.32c0.203,0.558 0.406,1.152 0.45,1.32c0.093,0.348 1.181,3.677 1.377,4.212c0.072,0.195 0.55,1.657 1.064,3.248c0.513,1.591 0.998,3.043 1.077,3.226c0.079,0.183 0.144,0.399 0.144,0.479c0,0.08 0.063,0.295 0.139,0.479c0.172,0.412 0.359,0.947 0.472,1.348c0.088,0.313 0.531,1.65 0.756,2.284c0.304,0.854 0.381,1.084 0.461,1.37c0.073,0.263 0.247,0.782 0.713,2.132c0.058,0.167 0.626,1.857 1.263,3.756c1.119,3.336 1.259,3.751 1.525,4.517c0.248,0.713 0.369,1.079 0.573,1.726c0.114,0.363 0.272,0.831 0.35,1.04c0.369,0.985 0.478,1.267 0.609,1.577c0.078,0.183 0.142,0.38 0.142,0.437c0,0.2 1.05,2.282 1.48,2.936c0.521,0.79 1.806,2.065 2.58,2.559c0.972,0.62 2.235,1.05 3.384,1.152c0.649,0.058 0.681,0.071 0.481,0.212c-0.127,0.089 -0.183,0.199 -0.137,0.27c0.042,0.066 0.077,0.36 0.078,0.653l0.001,0.533l-3.502,-0.001c-1.926,-0.001 -8.695,0.011 -15.043,0.025l-11.542,0.027l0.055,-0.219c0.03,-0.12 0.002,-0.319 -0.064,-0.441c-0.091,-0.17 -0.09,-0.291 0.004,-0.517c0.096,-0.232 0.095,-0.328 -0.004,-0.448c-0.109,-0.132 -0.059,-0.152 0.377,-0.152c0.277,0 0.943,-0.092 1.479,-0.204c3.311,-0.691 4.722,-2.535 4.288,-5.603c-0.077,-0.542 -0.184,-1.136 -0.24,-1.32c-0.055,-0.184 -0.178,-0.608 -0.274,-0.943c-0.326,-1.143 -0.478,-1.624 -0.618,-1.957c-0.077,-0.183 -0.14,-0.399 -0.14,-0.479c0,-0.08 -0.063,-0.295 -0.139,-0.479c-0.176,-0.422 -0.363,-0.957 -0.47,-1.348c-0.046,-0.167 -0.14,-0.464 -0.208,-0.66c-0.069,-0.195 -0.181,-0.515 -0.249,-0.711c-0.069,-0.195 -0.272,-0.835 -0.452,-1.421c-0.18,-0.586 -0.392,-1.216 -0.47,-1.399c-0.078,-0.183 -0.143,-0.399 -0.143,-0.479c0,-0.08 -0.063,-0.295 -0.14,-0.479c-0.077,-0.183 -0.287,-0.813 -0.466,-1.399c-0.179,-0.586 -0.391,-1.216 -0.469,-1.399c-0.078,-0.183 -0.143,-0.399 -0.143,-0.479c0,-0.08 -0.095,-0.341 -0.211,-0.58l-0.211,-0.434h-10.055c-8.836,0 -10.064,0.018 -10.132,0.152c-0.125,0.248 -0.363,0.922 -0.554,1.573c-0.098,0.335 -0.236,0.792 -0.305,1.015c-0.154,0.496 -0.373,1.221 -0.612,2.03c-0.099,0.335 -0.237,0.792 -0.306,1.015c-0.069,0.223 -0.2,0.657 -0.29,0.964c-0.09,0.307 -0.301,0.992 -0.469,1.523c-0.168,0.53 -0.38,1.215 -0.472,1.523c-0.092,0.307 -0.223,0.741 -0.292,0.964c-0.069,0.223 -0.206,0.68 -0.305,1.015c-0.098,0.335 -0.235,0.792 -0.305,1.015c-0.134,0.431 -0.341,1.164 -0.588,2.081c-0.083,0.307 -0.207,1.026 -0.277,1.598c-0.202,1.66 0.119,2.926 0.987,3.887c0.357,0.395 0.539,0.52 1.253,0.863c0.493,0.237 1.302,0.46 2.432,0.671c0.361,0.067 0.589,0.141 0.508,0.163c-0.434,0.119 -0.438,0.125 -0.215,0.362c0.202,0.215 0.206,0.246 0.056,0.46c-0.089,0.126 -0.139,0.313 -0.112,0.415c0.046,0.174 -0.093,0.19 -2.299,0.259c-1.291,0.04 -5.299,0.057 -8.906,0.036c-5.328,-0.03 -6.524,-0.061 -6.375,-0.165c0.155,-0.109 0.166,-0.177 0.072,-0.446c-0.081,-0.234 -0.08,-0.367 0.006,-0.504c0.165,-0.264 0.145,-0.392 -0.061,-0.396c-0.246,-0.005 0.454,-0.301 0.713,-0.301c0.228,0 1.112,-0.242 1.748,-0.48c1.953,-0.728 3.494,-2.088 4.576,-4.037c0.7,-1.262 1.218,-2.353 1.469,-3.096c0.047,-0.14 0.251,-0.711 0.454,-1.269c0.202,-0.558 0.406,-1.152 0.453,-1.32c0.047,-0.167 0.136,-0.442 0.199,-0.609c0.062,-0.167 0.753,-2.236 1.535,-4.596c0.782,-2.36 1.459,-4.393 1.505,-4.517c0.176,-0.472 0.336,-0.947 0.418,-1.24c0.047,-0.167 0.155,-0.487 0.24,-0.711c0.115,-0.303 0.156,-0.346 0.159,-0.172c0.002,0.13 0.05,0.206 0.106,0.172c0.126,-0.078 0.135,-0.457 0.01,-0.457c-0.085,0 0,-0.343 0.302,-1.218c0.179,-0.519 0.353,-1.017 0.494,-1.421c0.069,-0.195 0.163,-0.492 0.208,-0.66c0.046,-0.167 0.14,-0.464 0.208,-0.66c0.069,-0.195 0.18,-0.515 0.248,-0.711c0.068,-0.195 0.18,-0.515 0.248,-0.711c0.069,-0.195 0.163,-0.492 0.208,-0.66c0.046,-0.167 0.14,-0.464 0.208,-0.66c0.069,-0.195 0.18,-0.515 0.248,-0.711c0.068,-0.195 0.18,-0.515 0.248,-0.711c0.069,-0.195 0.163,-0.492 0.208,-0.66c0.046,-0.167 0.14,-0.464 0.208,-0.66c0.368,-1.048 0.533,-1.528 1.164,-3.4c0.301,-0.893 0.602,-1.784 0.668,-1.979c0.126,-0.375 0.285,-0.832 0.492,-1.421c0.069,-0.195 0.164,-0.492 0.213,-0.66c0.048,-0.167 0.39,-1.172 0.759,-2.233c0.369,-1.061 0.71,-2.066 0.757,-2.233c0.114,-0.403 0.301,-0.937 0.472,-1.348c0.076,-0.183 0.139,-0.399 0.139,-0.479c0,-0.08 0.063,-0.295 0.14,-0.479c0.077,-0.183 0.218,-0.585 0.313,-0.892c0.095,-0.307 0.233,-0.718 0.307,-0.914c0.074,-0.195 0.229,-0.652 0.345,-1.015c0.116,-0.363 0.375,-1.117 0.575,-1.675c0.201,-0.558 0.388,-1.106 0.417,-1.218c0.029,-0.112 0.093,-0.294 0.144,-0.406c0.051,-0.112 0.41,-1.162 0.8,-2.335c0.389,-1.172 0.756,-2.269 0.815,-2.436c0.059,-0.167 0.294,-0.875 0.523,-1.573c0.45,-1.372 0.588,-1.697 0.593,-1.396c0.004,0.239 0.039,0.227 0.393,-0.127c0.177,-0.177 0.411,-0.305 0.56,-0.305c0.492,0 0.391,-0.203 -0.107,-0.217c-0.484,-0.014 -0.483,-0.015 0.134,-0.085c0.342,-0.039 0.845,-0.127 1.117,-0.195c0.272,-0.068 0.768,-0.192 1.103,-0.276c0.843,-0.211 1.66,-0.444 2.081,-0.594c0.833,-0.297 1.082,-0.381 1.37,-0.46c0.167,-0.046 0.556,-0.183 0.863,-0.303c0.307,-0.121 0.695,-0.261 0.863,-0.312c0.167,-0.051 0.396,-0.133 0.508,-0.183c0.112,-0.05 0.409,-0.169 0.66,-0.265c0.251,-0.096 0.617,-0.243 0.812,-0.327c0.195,-0.084 0.492,-0.211 0.66,-0.281c0.167,-0.071 0.556,-0.247 0.863,-0.392M-0.978,-22.782c-0.324,1.076 -0.436,1.433 -0.566,1.802c-0.069,0.195 -0.162,0.492 -0.206,0.66l-0.081,0.305l-0.01,-0.279c-0.006,-0.153 -0.056,-0.279 -0.112,-0.279c-0.137,0 -0.13,0.583 0.008,0.629c0.075,0.025 0.079,0.116 0.011,0.288c-0.054,0.138 -0.178,0.525 -0.275,0.86c-0.097,0.335 -0.233,0.769 -0.302,0.964c-0.131,0.37 -0.307,0.943 -0.61,1.979c-0.098,0.335 -0.235,0.769 -0.305,0.964c-0.07,0.195 -0.208,0.629 -0.307,0.964c-0.098,0.335 -0.236,0.792 -0.305,1.015c-0.069,0.223 -0.207,0.68 -0.307,1.015c-0.099,0.335 -0.311,1.02 -0.471,1.523c-0.304,0.957 -0.447,1.427 -0.742,2.436c-0.098,0.335 -0.235,0.769 -0.305,0.964c-0.07,0.195 -0.208,0.629 -0.307,0.964c-0.098,0.335 -0.236,0.792 -0.305,1.015c-0.069,0.223 -0.206,0.68 -0.305,1.015c-0.098,0.335 -0.235,0.792 -0.305,1.015c-0.069,0.223 -0.206,0.68 -0.305,1.015c-0.098,0.335 -0.235,0.792 -0.305,1.015c-0.069,0.223 -0.206,0.68 -0.305,1.015c-0.098,0.335 -0.235,0.792 -0.305,1.015c-0.069,0.223 -0.205,0.68 -0.302,1.015c-0.097,0.335 -0.234,0.769 -0.304,0.964c-0.333,0.927 -0.481,1.509 -0.423,1.661c0.058,0.152 0.811,0.166 8.948,0.166c10.086,0 9.062,0.108 8.673,-0.915c-0.117,-0.306 -0.25,-0.694 -0.298,-0.861c-0.089,-0.317 -0.826,-2.515 -1.021,-3.045c-0.062,-0.167 -0.15,-0.442 -0.195,-0.609c-0.046,-0.167 -0.133,-0.442 -0.193,-0.609c-0.06,-0.167 -0.383,-1.15 -0.718,-2.182c-0.335,-1.033 -0.659,-2.015 -0.72,-2.182c-0.062,-0.167 -0.15,-0.442 -0.196,-0.609c-0.046,-0.167 -0.14,-0.464 -0.208,-0.66c-0.069,-0.195 -0.181,-0.515 -0.249,-0.711c-0.069,-0.195 -0.409,-1.246 -0.757,-2.335c-0.348,-1.089 -0.69,-2.139 -0.761,-2.335c-0.071,-0.195 -0.276,-0.835 -0.456,-1.421c-0.18,-0.586 -0.392,-1.216 -0.47,-1.399c-0.078,-0.183 -0.143,-0.422 -0.143,-0.529c0,-0.108 -0.063,-0.346 -0.14,-0.529c-0.077,-0.183 -0.219,-0.607 -0.316,-0.942c-0.097,-0.335 -0.233,-0.769 -0.303,-0.964c-0.07,-0.195 -0.207,-0.629 -0.303,-0.964c-0.097,-0.335 -0.24,-0.759 -0.318,-0.942c-0.078,-0.183 -0.142,-0.399 -0.142,-0.479c0,-0.08 -0.062,-0.295 -0.138,-0.479c-0.132,-0.318 -0.201,-0.533 -0.636,-1.982c-0.105,-0.348 -0.236,-0.634 -0.292,-0.634c-0.056,-0.001 -0.187,0.285 -0.293,0.633" fill="#8323AB"/></g></g><g id="textos" transform="translate(489.156 -161.867)"><g id="logotipo-ana-cure" transform="translate(0.093 0)"><path d="M-88.685,57.408l-0.84,-0.417l16.215,-0.007c11.207,-0.005 16.144,0.042 15.987,0.151c-0.126,0.087 -0.571,0.315 -0.99,0.507c-0.419,0.192 -0.988,0.541 -1.265,0.775c-0.371,0.313 -0.549,0.381 -0.674,0.256c-0.093,-0.093 -0.243,-0.117 -0.333,-0.053c-0.168,0.12 -0.708,0.299 -1.914,0.634c-0.377,0.105 -0.856,0.247 -1.066,0.315c-2.611,0.856 -8.921,1.484 -12.172,1.212c-2.61,-0.218 -3.71,-0.388 -6.099,-0.943c-2.067,-0.48 -5.069,-1.545 -6.849,-2.43M-14.328,57.605l0.745,-0.631h7.208h7.208l0.074,0.343c0.749,3.449 1.035,6.054 1.026,9.326c-0.007,2.504 -0.177,4.321 -0.591,6.319c-0.13,0.628 -0.291,1.45 -0.357,1.827c-0.066,0.377 -0.221,0.993 -0.345,1.37c-1.463,4.459 -1.54,4.731 -1.621,5.71c-0.007,0.084 -0.072,0.059 -0.144,-0.055c-0.093,-0.147 -0.313,0.161 -0.759,1.066c-1.181,2.395 -3.193,5.678 -4.367,7.124c-1.752,2.159 -4.007,4.418 -5.596,5.607c-0.476,0.356 -1.225,0.915 -1.664,1.242c-1.253,0.933 -3.226,2.099 -4.9,2.895c-2.446,1.164 -2.674,1.26 -4.197,1.778c-1.737,0.591 -1.695,0.613 -2.429,-1.31c-1.33,-3.483 -1.787,-5.09 -2.23,-7.841c-0.04,-0.251 -0.135,-0.799 -0.21,-1.218c-0.075,-0.419 -0.219,-1.795 -0.319,-3.059c-0.269,-3.383 0.047,-6.939 0.952,-10.72c0.174,-0.728 1.267,-4.132 1.491,-4.644c0.073,-0.167 0.258,-0.61 0.411,-0.983c0.949,-2.314 2.699,-5.346 4.386,-7.597c1.153,-1.539 4.621,-5.184 6.229,-6.547M28.276,58.534l0.185,-1.561h10.322h10.323l1.234,1.865c0.679,1.026 1.681,2.79 2.228,3.921c0.547,1.13 1.189,2.341 1.427,2.69c0.238,0.349 0.365,0.657 0.282,0.685c-0.085,0.028 0.072,0.712 0.361,1.573c0.898,2.67 1.095,3.55 1.615,7.185c0.086,0.602 0.156,2.555 0.155,4.339c-0.001,3.497 -0.185,5.335 -0.842,8.421c-0.101,0.475 -0.577,2.141 -0.913,3.197c-0.661,2.077 -2.567,6.293 -2.902,6.421c-0.278,0.107 -3.209,-1.244 -4.911,-2.264c-0.532,-0.319 -0.998,-0.579 -1.035,-0.579c-0.158,0 -3.344,-2.224 -3.708,-2.588c-0.042,-0.042 -0.521,-0.448 -1.066,-0.902c-1.417,-1.183 -3.903,-3.7 -4.991,-5.053c-3.171,-3.943 -5.552,-8.771 -6.863,-13.914c-1.036,-4.066 -1.39,-9.334 -0.903,-13.436M-270.783,64.22c0.293,-0.035 1.389,-0.039 2.436,-0.011c1.495,0.041 2.097,0.124 2.807,0.388c2.186,0.812 3.952,2.307 5.572,4.716c0.5,0.743 0.908,1.385 0.908,1.426c0,0.041 0.193,0.404 0.429,0.805c0.844,1.437 2.293,5.196 3.069,7.962c0.106,0.377 0.247,0.856 0.315,1.066c0.107,0.333 0.452,1.742 0.914,3.73c1.203,5.183 2.192,12.472 2.811,20.706c0.044,0.586 0.145,1.888 0.224,2.893c0.254,3.236 0.457,8.356 0.621,15.682c0.148,6.606 0.321,9.947 0.534,10.291c0.047,0.076 0.976,0.138 2.064,0.138c2.536,0 5.327,0.292 8.052,0.842c4.199,0.848 7.195,2.361 9.034,4.563c0.863,1.033 1.932,3.205 2.249,4.568c0.28,1.208 0.285,5.21 0.007,6.242c-0.834,3.097 -2.023,4.574 -4.439,5.515c-0.644,0.251 -2.454,0.236 -3.077,-0.025c-0.727,-0.304 -1.567,-1.044 -1.865,-1.642c-0.328,-0.658 -0.292,-1.727 0.099,-2.872c0.487,-1.428 0.49,-4.036 0.006,-5.016c-0.765,-1.548 -1.816,-2.315 -3.917,-2.859c-0.335,-0.087 -0.897,-0.233 -1.248,-0.326c-0.352,-0.092 -1.75,-0.212 -3.107,-0.265l-2.468,-0.097l0.098,1.053c0.096,1.023 0.216,2.175 0.556,5.316c0.267,2.465 0.293,2.69 0.45,3.806c0.082,0.586 0.221,1.597 0.308,2.246c0.389,2.895 0.487,3.591 0.614,4.377c0.074,0.461 0.21,1.351 0.301,1.979c0.091,0.628 0.227,1.519 0.302,1.979c0.141,0.863 0.362,2.233 0.638,3.959c0.087,0.544 0.216,1.264 0.287,1.599c0.071,0.335 0.207,1.054 0.303,1.599c0.219,1.245 0.43,2.328 0.615,3.159c0.405,1.812 0.478,2.134 0.601,2.626c0.073,0.293 0.214,0.875 0.312,1.294c0.099,0.419 0.239,0.967 0.311,1.218c0.072,0.251 0.279,0.971 0.46,1.599c0.593,2.062 1.529,4.765 2.161,6.24c1.571,3.664 3.966,6.903 5.636,7.622c0.717,0.308 0.849,0.321 1.547,0.143c0.731,-0.186 2.628,-1.111 3.428,-1.671c0.54,-0.378 2.102,-1.143 2.792,-1.366c1.845,-0.598 3.899,1.629 3.906,4.235c0.003,1.344 -0.414,2.294 -1.504,3.425c-1.572,1.63 -3.913,3.275 -5.65,3.97c-2.602,1.041 -5.474,0.949 -7.84,-0.252c-3.996,-2.028 -8.325,-7.722 -11.72,-15.417c-0.797,-1.807 -1.151,-2.707 -2.091,-5.329c-0.566,-1.578 -0.725,-2.066 -1.5,-4.606c-0.644,-2.11 -1.702,-6.113 -2.123,-8.031c-0.092,-0.419 -0.227,-1.035 -0.301,-1.37c-0.074,-0.335 -0.213,-1.054 -0.309,-1.599c-0.096,-0.544 -0.231,-1.298 -0.302,-1.675c-0.791,-4.24 -1.689,-13.142 -2.071,-20.535l-0.098,-1.884l-2.913,0.099c-3.312,0.113 -6.826,0.405 -10.221,0.849c-0.586,0.077 -1.682,0.216 -2.436,0.309c-0.754,0.093 -1.747,0.229 -2.208,0.303c-0.461,0.074 -1.351,0.208 -1.979,0.299c-1.169,0.17 -2.381,0.369 -3.73,0.614c-0.419,0.076 -1.172,0.21 -1.675,0.298c-0.502,0.088 -1.804,0.339 -2.893,0.558c-1.089,0.219 -2.151,0.428 -2.36,0.465c-0.209,0.036 -0.689,0.136 -1.066,0.22c-0.377,0.085 -0.959,0.215 -1.294,0.288c-0.722,0.158 -3.219,0.743 -3.654,0.856c-0.167,0.044 -0.579,0.145 -0.914,0.226c-1.321,0.32 -1.973,0.49 -4.872,1.269c-2.678,0.72 -7.11,2.199 -7.974,2.661c-0.377,0.202 -0.55,0.565 -1.998,4.197c-1.109,2.781 -1.237,3.092 -1.811,4.376c-0.177,0.397 -0.322,0.792 -0.322,0.878c0,0.086 -0.06,0.275 -0.134,0.42c-0.187,0.367 -0.352,0.778 -1.084,2.7c-0.351,0.921 -0.693,1.812 -0.761,1.979c-0.068,0.167 -0.329,0.853 -0.58,1.523c-0.251,0.67 -0.812,2.143 -1.248,3.273c-0.435,1.13 -1.134,2.946 -1.552,4.035c-0.995,2.59 -0.971,2.528 -1.153,2.969c-0.087,0.209 -0.295,0.757 -0.462,1.218c-0.373,1.026 -1.232,3.315 -1.4,3.73c-0.068,0.167 -0.41,1.058 -0.761,1.979c-0.351,0.921 -0.7,1.829 -0.776,2.017c-0.076,0.188 -0.2,0.497 -0.275,0.685c-0.076,0.188 -0.288,0.754 -0.472,1.256c-0.184,0.502 -0.389,1.051 -0.457,1.218c-0.068,0.167 -0.335,0.87 -0.594,1.561c-0.259,0.691 -0.683,1.821 -0.942,2.512c-0.259,0.691 -0.527,1.393 -0.595,1.561c-0.068,0.167 -0.41,1.058 -0.761,1.979c-0.351,0.921 -0.695,1.812 -0.766,1.979c-0.07,0.167 -0.514,1.298 -0.986,2.512c-1.282,3.298 -1.489,3.662 -2.793,4.904c-3.131,2.982 -6.145,4.535 -8.805,4.535c-1.468,0 -2.342,-0.324 -3.206,-1.187c-0.865,-0.865 -1.149,-1.708 -1.14,-3.38c0.007,-1.273 0.083,-1.669 0.627,-3.301c0.34,-1.02 0.791,-2.236 1.002,-2.702c0.211,-0.467 0.555,-1.227 0.764,-1.69c0.209,-0.463 0.381,-0.868 0.381,-0.899c0,-0.032 0.299,-0.698 0.664,-1.48c0.665,-1.424 1.085,-2.346 1.653,-3.63c0.167,-0.377 0.501,-1.113 0.744,-1.637c0.243,-0.523 0.639,-1.38 0.88,-1.903c0.796,-1.725 1.495,-3.207 2.533,-5.367c0.563,-1.172 1.434,-2.988 1.935,-4.035c0.501,-1.047 1.478,-3.068 2.17,-4.491c0.693,-1.424 1.62,-3.342 2.06,-4.263c0.849,-1.775 2.422,-5.03 4.487,-9.287c1.589,-3.276 2.273,-4.689 2.337,-4.834c0.125,-0.281 -0.377,-0.058 -1.39,0.618c-2.345,1.565 -6.398,3.707 -8.71,4.603c-1.508,0.585 -2.886,0.785 -3.959,0.576c-0.951,-0.185 -2.027,-0.694 -2.643,-1.249c-0.997,-0.899 -1.849,-2.821 -1.849,-4.172c0,-0.898 0.446,-2.21 0.95,-2.791c0.882,-1.018 4.642,-2.98 8.871,-4.627c1.005,-0.392 1.964,-0.768 2.132,-0.836c0.167,-0.068 0.716,-0.274 1.218,-0.458c0.502,-0.184 1.051,-0.393 1.218,-0.465c0.394,-0.17 5.577,-1.866 6.471,-2.118c0.377,-0.106 0.856,-0.247 1.066,-0.312c0.209,-0.065 0.775,-0.235 1.256,-0.377c0.481,-0.142 0.913,-0.319 0.959,-0.394c0.099,-0.161 0.887,-2.298 1.287,-3.49c0.154,-0.461 0.497,-1.42 0.761,-2.132c0.264,-0.712 0.605,-1.671 0.757,-2.132c0.283,-0.858 0.692,-1.971 0.924,-2.512c0.072,-0.167 0.23,-0.613 0.352,-0.99c0.212,-0.656 0.597,-1.713 0.859,-2.36c0.068,-0.167 0.267,-0.698 0.443,-1.18c0.176,-0.482 0.463,-1.269 0.639,-1.751c0.176,-0.482 0.381,-1.03 0.457,-1.218c0.076,-0.188 0.199,-0.497 0.275,-0.685c0.076,-0.188 0.288,-0.754 0.472,-1.256c0.184,-0.502 0.39,-1.051 0.457,-1.218c0.068,-0.167 0.397,-1.024 0.732,-1.903c1.118,-2.937 4.946,-12.549 5.383,-13.516c0.237,-0.525 0.432,-0.986 0.432,-1.024c0,-0.038 0.206,-0.517 0.457,-1.066c0.251,-0.549 0.457,-1.028 0.457,-1.065c0,-0.037 0.171,-0.447 0.381,-0.91c0.209,-0.463 0.552,-1.221 0.761,-1.684c0.209,-0.463 0.381,-0.872 0.381,-0.909c0,-0.07 0.504,-1.204 1.218,-2.741c0.393,-0.845 0.572,-1.243 1.403,-3.121c1.887,-4.261 4.46,-9.177 7.092,-13.551c0.708,-1.176 3.531,-5.44 3.909,-5.905c0.117,-0.144 0.672,-0.878 1.232,-1.632c3.322,-4.464 7.378,-8.442 10.128,-9.931c1.163,-0.63 3.291,-1.342 4.402,-1.473M-74.542,67.401c1.001,-0.322 2.809,-0.208 3.595,0.227c3.057,1.693 3.249,5.756 0.363,7.699c-0.379,0.255 -1.079,0.551 -1.556,0.658c-2.209,0.495 -4.528,-0.968 -5.212,-3.288c-0.222,-0.753 -0.233,-1.009 -0.076,-1.785c0.101,-0.498 0.312,-1.158 0.469,-1.466c0.395,-0.774 1.578,-1.776 2.416,-2.046M-271.163,72.457c-0.684,0.173 -2.095,1.524 -3.475,3.33c-0.805,1.053 -4.214,6.082 -4.214,6.217c0,0.037 -0.343,0.626 -0.761,1.309c-0.419,0.682 -0.761,1.267 -0.761,1.299c0,0.032 -0.193,0.387 -0.43,0.788c-0.43,0.73 -1.15,2.039 -2.403,4.365c-1.222,2.27 -5.801,11.55 -6.996,14.179c-0.228,0.502 -0.714,1.554 -1.079,2.336c-0.365,0.782 -0.664,1.446 -0.664,1.475c0,0.029 -0.331,0.759 -0.736,1.623c-0.405,0.863 -0.843,1.81 -0.974,2.103c-0.297,0.665 -0.829,1.864 -1.183,2.664c-0.264,0.596 -1.061,2.443 -1.446,3.35c-0.107,0.251 -0.339,0.782 -0.516,1.178c-0.177,0.397 -0.322,0.755 -0.322,0.795c0,0.04 -0.166,0.436 -0.369,0.88c-0.203,0.444 -0.515,1.177 -0.693,1.629c-0.178,0.452 -0.451,1.102 -0.607,1.444c-0.155,0.342 -0.706,1.683 -1.223,2.981c-0.517,1.298 -1.044,2.6 -1.171,2.893c-0.281,0.648 -0.507,1.193 -0.662,1.599c-0.064,0.167 -0.22,0.544 -0.347,0.837c-0.127,0.293 -0.414,1.012 -0.639,1.599c-0.558,1.459 -0.62,1.619 -0.801,2.055c-0.087,0.209 -0.308,0.792 -0.492,1.294c-0.184,0.502 -0.389,1.051 -0.455,1.218c-0.603,1.516 -0.756,1.961 -0.697,2.02c0.038,0.038 0.535,-0.082 1.105,-0.267c1.236,-0.401 1.424,-0.453 3.777,-1.061c1.695,-0.437 3.86,-0.918 5.595,-1.243c0.398,-0.074 1.083,-0.204 1.523,-0.288c0.976,-0.186 2.15,-0.393 3.464,-0.609c0.544,-0.09 1.401,-0.232 1.903,-0.317c2.993,-0.503 8.435,-1.189 12.028,-1.517c4.425,-0.403 10.519,-0.736 13.71,-0.748c1.009,-0.004 1.902,-0.075 1.985,-0.158c0.094,-0.094 0.109,-0.654 0.04,-1.484c-0.153,-1.844 -0.369,-4.769 -0.893,-12.106c-0.289,-4.051 -0.463,-6.277 -0.611,-7.841c-0.448,-4.737 -0.7,-7.209 -0.915,-8.982c-0.497,-4.106 -0.731,-5.943 -0.906,-7.118c-0.075,-0.502 -0.213,-1.462 -0.308,-2.132c-0.095,-0.67 -0.231,-1.526 -0.302,-1.903c-0.071,-0.377 -0.209,-1.13 -0.306,-1.675c-0.275,-1.542 -0.671,-3.456 -0.915,-4.415c-0.074,-0.293 -0.281,-1.15 -0.459,-1.903c-0.178,-0.754 -0.379,-1.542 -0.446,-1.751c-0.067,-0.209 -0.208,-0.689 -0.313,-1.066c-0.37,-1.33 -0.458,-1.617 -1.08,-3.502c-0.835,-2.531 -1.717,-4.549 -2.173,-4.972c-0.405,-0.376 -0.912,-0.523 -1.388,-0.403M65.282,74.886c2.917,-1.033 6.048,1.122 6.048,4.162c0,2.836 -2.194,4.855 -4.925,4.532c-1.697,-0.201 -2.836,-0.986 -3.606,-2.485c-0.514,-1.001 -0.515,-2.834 -0.001,-3.912c0.422,-0.886 1.616,-1.989 2.484,-2.297M-2.879,95.709c1.244,-0.524 2.697,-0.458 3.864,0.177c1.632,0.889 2.628,2.944 2.296,4.739c-0.41,2.218 -2.075,3.625 -4.362,3.685c-0.982,0.026 -1.29,-0.031 -1.969,-0.363c-1.615,-0.79 -2.576,-2.327 -2.573,-4.115c0.003,-1.926 0.966,-3.374 2.745,-4.124M63.718,108.983c1.229,-0.106 6.155,0.029 6.623,0.181c0.251,0.082 0.765,0.237 1.142,0.346c3.157,0.91 6.006,3.568 7.888,7.359c1.661,3.346 2.069,5.618 1.386,7.718c-0.448,1.376 -1.891,4.228 -2.882,5.697c-0.226,0.335 -0.902,1.426 -1.502,2.424c-3.66,6.091 -6.285,8.156 -9.588,7.541c-2.079,-0.387 -3.514,-1.38 -4.281,-2.961c-0.317,-0.653 -0.37,-0.988 -0.376,-2.36c-0.005,-1.045 0.068,-1.783 0.209,-2.132c0.902,-2.222 1.403,-2.902 4.369,-5.938c2.68,-2.742 3.406,-3.801 3.406,-4.968c0,-0.575 -0.078,-0.769 -0.453,-1.119c-1.147,-1.071 -3.363,-1.547 -5.75,-1.234c-0.817,0.107 -1.725,0.252 -2.018,0.323c-0.293,0.07 -0.875,0.208 -1.294,0.305c-1.081,0.252 -2.763,0.74 -3.654,1.06c-7.65,2.749 -15.628,7.512 -21.54,12.858c-7.801,7.055 -13.233,14.099 -17.558,22.769c-1.443,2.893 -1.838,3.759 -2.496,5.478c-0.209,0.546 -0.436,1.13 -0.504,1.297c-1.023,2.509 -2.379,6.986 -3.033,10.011c-0.89,4.115 -1.137,6.419 -1.142,10.62c-0.004,3.759 0.047,4.256 0.686,6.623c0.09,0.335 0.201,0.798 0.246,1.03c0.045,0.231 0.142,0.458 0.216,0.504c0.074,0.046 0.135,0.186 0.135,0.312c0,0.8 1.924,3.91 3.259,5.268c2.03,2.065 4.29,3.085 8.329,3.757c1.261,0.21 7.153,0.22 8.496,0.014c3.264,-0.499 4.117,-0.678 7.168,-1.503c2.278,-0.616 6.058,-1.985 8.45,-3.059c0.335,-0.15 0.952,-0.426 1.37,-0.611c1.173,-0.52 5.516,-2.676 6.623,-3.288c2.136,-1.18 2.559,-1.42 3.882,-2.196c0.754,-0.442 1.51,-0.88 1.681,-0.972c2.364,-1.282 11.022,-7.202 15.143,-10.356c0.544,-0.417 1.435,-1.098 1.979,-1.514c1.695,-1.296 7.879,-6.487 10.201,-8.562c0.293,-0.262 1.526,-1.355 2.741,-2.43c1.214,-1.075 2.893,-2.618 3.73,-3.43c3.094,-3 3.966,-3.624 4.682,-3.352c0.472,0.18 1.036,1.05 1.617,2.496c0.283,0.704 0.211,2.83 -0.132,3.872c-0.458,1.396 -2.124,4.387 -2.962,5.32c-0.088,0.098 -0.435,0.522 -0.77,0.942c-0.937,1.175 -4.928,5.067 -7.384,7.203c-1.894,1.647 -6.768,5.62 -8.372,6.825c-0.279,0.209 -0.896,0.689 -1.372,1.066c-0.476,0.377 -1.091,0.856 -1.368,1.066c-0.276,0.209 -1.127,0.863 -1.889,1.453c-2.647,2.048 -7.913,5.738 -9.419,6.601c-0.271,0.155 -1.409,0.839 -2.528,1.519c-1.119,0.68 -2.067,1.237 -2.108,1.237c-0.04,0 -0.256,0.127 -0.478,0.282c-0.383,0.267 -1.279,0.766 -4.058,2.259c-1.903,1.022 -5.156,2.607 -7.537,3.673c-1.702,0.762 -5.651,2.282 -7.08,2.725c-0.419,0.13 -1.138,0.355 -1.599,0.501c-0.798,0.252 -1.168,0.355 -2.741,0.762c-0.377,0.098 -0.925,0.239 -1.218,0.315c-1.364,0.353 -4.848,0.932 -7.242,1.203c-2.099,0.238 -7.823,0.197 -9.519,-0.067c-3.458,-0.539 -5.279,-1.04 -7.565,-2.082c-0.525,-0.239 -0.982,-0.435 -1.016,-0.435c-0.22,0 -2.962,-1.711 -3.967,-2.476c-4.544,-3.458 -6.759,-6.705 -8.229,-12.064c-0.445,-1.625 -0.506,-1.928 -1.079,-5.405c-0.338,-2.049 -0.393,-10.235 -0.084,-12.485c0.527,-3.84 1.141,-7.22 1.687,-9.287c1.117,-4.229 2.074,-7.021 3.519,-10.277c0.186,-0.419 0.474,-1.07 0.64,-1.446c0.454,-1.03 1.804,-3.725 2.555,-5.1c4.429,-8.119 11.68,-17.1 18.508,-22.925c2.63,-2.244 3.285,-2.789 3.63,-3.025c0.176,-0.121 0.355,-0.26 0.397,-0.309c0.323,-0.378 4.469,-3.445 6.319,-4.673c2.197,-1.459 2.775,-1.811 4.948,-3.007c1.088,-0.599 6.804,-3.438 6.922,-3.438c0.04,0 0.504,-0.194 1.029,-0.43c0.525,-0.236 1.195,-0.517 1.488,-0.624c0.293,-0.107 0.67,-0.25 0.837,-0.317c3.354,-1.352 8.65,-2.694 11.647,-2.952M292.631,135.475c1.044,-0.1 3.768,0.076 4.62,0.297c4.307,1.119 7.083,4.725 8.021,10.422c0.274,1.664 0.275,2.513 0.003,4.276c-0.388,2.519 -0.846,3.951 -1.969,6.153c-2.592,5.087 -6.485,9.481 -14.44,16.299c-1.531,1.312 -2.954,2.533 -3.164,2.714c-1.769,1.525 -6.214,4.965 -9.17,7.098c-0.638,0.461 -1.224,0.974 -1.302,1.142c-0.181,0.39 0.129,2.923 0.484,3.959c0.431,1.258 1.155,2.6 1.903,3.528c1.633,2.027 3.902,3.47 6.563,4.174c3.306,0.875 7.455,0.788 11.724,-0.246c2,-0.484 2.923,-0.755 3.882,-1.138c0.167,-0.067 0.544,-0.209 0.837,-0.316c1.88,-0.687 6.327,-2.912 8.847,-4.427c1.121,-0.674 2.262,-1.355 2.535,-1.513c0.707,-0.409 4.273,-2.832 5.959,-4.05c1.326,-0.958 6.402,-4.981 7.097,-5.625c0.168,-0.156 0.819,-0.728 1.446,-1.271c1.822,-1.578 2.893,-2.591 6.774,-6.408c3.997,-3.931 5.805,-5.659 6.623,-6.328c0.293,-0.239 0.648,-0.538 0.788,-0.664c0.14,-0.126 0.634,-0.458 1.098,-0.738c1.662,-1.005 2.68,-0.535 2.681,1.239c0.001,1.176 -0.375,1.877 -2.92,5.437c-0.474,0.662 -4.053,5.174 -4.227,5.329c-0.047,0.042 -0.462,0.521 -0.922,1.066c-0.46,0.544 -0.87,1.024 -0.913,1.066c-0.042,0.042 -0.59,0.658 -1.216,1.37c-3.867,4.394 -7.912,8.337 -12.183,11.877c-1.13,0.937 -2.216,1.839 -2.412,2.004c-2.365,1.997 -8.189,6.038 -10.986,7.622c-0.293,0.166 -0.601,0.353 -0.685,0.416c-0.826,0.618 -7.397,3.812 -7.842,3.812c-0.086,0 -0.275,0.067 -0.42,0.149c-0.669,0.376 -4.558,1.48 -6.354,1.804c-2.396,0.431 -3.575,0.528 -6.395,0.526c-2.948,-0.003 -3.417,-0.05 -6.319,-0.641c-2.374,-0.483 -5.885,-2.11 -7.882,-3.654c-3.967,-3.066 -6.324,-7.476 -7.37,-13.79c-0.27,-1.631 -0.273,-10.817 -0.004,-12.942c0.546,-4.31 0.941,-6.624 1.706,-9.973c1.461,-6.395 6.056,-15.419 10.501,-20.623c2.62,-3.067 4.429,-4.713 7.236,-6.582c2.163,-1.44 5.386,-2.623 7.765,-2.85M-87.089,138.5c2.312,-0.267 5.382,-0.119 7.689,0.37c3.7,0.785 5.958,2.747 7.463,6.487c1.099,2.733 1.141,5.475 0.151,9.973c-0.322,1.465 -0.566,2.458 -1.363,5.557c-1.389,5.397 -1.764,8.179 -1.517,11.244c0.235,2.917 0.641,4.498 1.701,6.637c1.033,2.083 2.925,3.805 4.967,4.519c3.583,1.253 7.857,0.664 12.912,-1.781c2.656,-1.284 5.033,-2.734 8.268,-5.041c1.148,-0.819 5.495,-4.334 6.685,-5.405c0.202,-0.182 0.829,-0.731 1.393,-1.218c1.301,-1.125 6.48,-6.325 9.058,-9.095c2.202,-2.366 3.269,-3.286 3.81,-3.286c0.769,0 1.637,2.039 1.57,3.688c-0.066,1.606 -0.485,2.831 -1.656,4.836c-0.597,1.022 -2.38,3.471 -3.274,4.494c-0.219,0.251 -0.857,0.981 -1.418,1.621c-0.561,0.641 -2.561,2.699 -4.445,4.576c-2.992,2.979 -3.962,3.891 -6.166,5.795c-3.304,2.854 -7.711,6.111 -10.353,7.654c-0.419,0.244 -0.967,0.563 -1.218,0.709c-0.577,0.334 -2.699,1.377 -3.502,1.721c-2.248,0.962 -3.656,1.393 -6.319,1.932c-1.36,0.275 -6.643,0.271 -7.765,-0.007c-4.824,-1.193 -8.351,-3.641 -10.855,-7.533c-0.796,-1.237 -1.139,-1.889 -1.796,-3.413c-0.19,-0.44 -0.389,-0.799 -0.442,-0.799c-0.054,0 -0.538,0.565 -1.077,1.256c-0.901,1.156 -6.566,6.973 -7.983,8.197c-3.041,2.628 -5.974,4.822 -8.526,6.378c-1.021,0.622 -1.349,0.816 -2.626,1.548c-1.125,0.645 -3.3,1.695 -4.758,2.297c-0.868,0.358 -1.023,0.417 -1.751,0.66c-2.128,0.71 -3.647,0.98 -5.481,0.973c-1.534,-0.006 -2.944,-0.223 -3.215,-0.493c-0.06,-0.06 -0.202,-0.109 -0.317,-0.109c-0.356,0 -2.265,-1.342 -2.921,-2.053c-1.276,-1.384 -2.668,-4.018 -3.22,-6.092c-0.067,-0.251 -0.222,-0.834 -0.345,-1.294c-0.439,-1.646 -0.869,-4.687 -0.867,-6.134c0.002,-1.382 0.556,-5.431 0.832,-6.084c0.224,-0.529 -0.303,-0.26 -1.214,0.62c-0.743,0.718 -3.01,2.687 -4.568,3.967c-1.59,1.307 -7.061,5.195 -7.31,5.195c-0.052,0 -0.392,0.205 -0.756,0.455c-0.88,0.606 -3.886,2.148 -5.028,2.579c-0.502,0.19 -1.051,0.4 -1.218,0.466c-0.167,0.066 -0.613,0.204 -0.99,0.307c-0.377,0.103 -0.856,0.241 -1.066,0.306c-1.084,0.339 -2.887,0.53 -4.948,0.524c-2.354,-0.007 -3.47,-0.18 -5.329,-0.826c-1.754,-0.61 -3.876,-2.048 -5.231,-3.546c-1.136,-1.256 -2.636,-3.791 -3.356,-5.67c-0.192,-0.502 -0.408,-1.051 -0.479,-1.218c-0.359,-0.843 -1.138,-3.678 -1.506,-5.481c-0.103,-0.502 -0.243,-1.188 -0.313,-1.523c-0.069,-0.335 -0.203,-1.089 -0.297,-1.675c-0.094,-0.586 -0.233,-1.408 -0.31,-1.827c-0.077,-0.419 -0.216,-1.275 -0.309,-1.903c-0.094,-0.628 -0.231,-1.519 -0.305,-1.979c-0.074,-0.461 -0.212,-1.386 -0.306,-2.055c-0.162,-1.153 -0.237,-1.582 -0.625,-3.578c-0.684,-3.518 -1.252,-5.029 -2.291,-6.1c-0.316,-0.326 -0.833,-0.704 -1.149,-0.841c-0.702,-0.305 -2.543,-0.344 -3.261,-0.07c-3.829,1.464 -5.987,3.712 -13.526,14.091c-0.578,0.795 -1.211,1.663 -2.612,3.578c-5.984,8.181 -9.302,12.218 -13.019,15.836c-2.743,2.67 -3.988,3.576 -5.393,3.926c-2.134,0.532 -4.237,-1.426 -5.444,-5.07c-0.287,-0.868 -0.437,-1.608 -0.787,-3.895c-0.199,-1.303 -0.198,-8.206 0.002,-10.221c0.454,-4.573 0.437,-4.442 1.224,-9.673c0.376,-2.5 1.104,-6.506 1.521,-8.375c0.405,-1.812 0.478,-2.134 0.601,-2.626c0.073,-0.293 0.214,-0.875 0.312,-1.294c0.163,-0.694 0.273,-1.095 0.605,-2.208c0.062,-0.209 0.199,-0.689 0.305,-1.066c0.257,-0.918 1.042,-3.341 1.222,-3.768c0.079,-0.188 0.204,-0.497 0.276,-0.685c0.073,-0.188 0.501,-1.087 0.952,-1.996c0.888,-1.792 1.947,-3.072 2.876,-3.477c1.209,-0.527 1.429,-0.579 2.444,-0.579c1.791,0 2.943,0.809 3.469,2.436c0.528,1.633 0.416,4.474 -0.282,7.156c-0.076,0.293 -0.25,0.978 -0.385,1.523c-0.136,0.544 -0.305,1.195 -0.376,1.446c-0.071,0.251 -0.276,1.005 -0.455,1.675c-0.179,0.67 -0.385,1.424 -0.457,1.675c-0.178,0.62 -0.755,2.77 -0.919,3.426c-0.452,1.81 -0.685,2.785 -0.908,3.806c-0.101,0.461 -0.238,1.077 -0.305,1.37c-0.575,2.522 -1,4.863 -1.367,7.537c-0.24,1.752 -0.497,4.962 -0.405,5.055c0.133,0.133 1.944,-1.529 4.213,-3.865c2.026,-2.086 5.502,-6.108 8.118,-9.392c0.742,-0.931 1.468,-1.836 1.614,-2.011c0.353,-0.423 1.496,-1.901 3.051,-3.946c1.11,-1.46 2.161,-2.791 2.664,-3.375c3.233,-3.751 5.978,-6.103 8.907,-7.633c1.988,-1.038 2.904,-1.348 5.253,-1.78c1.531,-0.282 2.75,-0.288 4.111,-0.019c3.964,0.781 6.486,3.033 8.375,7.479c0.142,0.335 0.318,0.746 0.39,0.914c0.198,0.458 0.692,2.183 0.871,3.045c0.49,2.348 0.655,3.649 1.25,9.896c0.484,5.085 0.594,6.037 0.927,8.069c0.356,2.172 0.813,3.727 1.545,5.253c1.733,3.617 5.056,5.44 8.9,4.881c3.578,-0.52 6.255,-1.644 10.173,-4.273c2.729,-1.831 6.126,-4.472 8.215,-6.386c0.416,-0.381 1.169,-1.069 1.675,-1.53c1.662,-1.514 6.178,-6.124 8.211,-8.382c2.548,-2.829 2.379,-2.631 4.96,-5.853c5.629,-7.031 8.891,-10.23 14.446,-14.171c3.307,-2.346 6.717,-4.165 9.387,-5.005c1.777,-0.56 2.434,-0.697 4.415,-0.926M158.455,141c0.981,-0.339 0.838,-0.335 1.669,-0.051c1.241,0.423 1.645,1.19 1.645,3.125c0,0.651 -0.067,1.514 -0.148,1.919c-0.174,0.862 -0.601,3.061 -0.764,3.932c-0.063,0.335 -0.219,1.123 -0.347,1.751c-0.128,0.628 -0.306,1.656 -0.395,2.284c-0.089,0.628 -0.247,1.724 -0.351,2.436c-0.247,1.701 -0.241,10.223 0.009,12.18c0.612,4.79 1.252,7.163 2.794,10.353c0.661,1.368 0.951,1.775 2.005,2.821c1.902,1.886 3.28,2.406 5.454,2.057c1.102,-0.177 3.408,-0.827 4.304,-1.213c1.419,-0.612 3.767,-1.752 4.682,-2.274c0.314,-0.179 0.828,-0.471 1.142,-0.648c0.314,-0.177 0.753,-0.451 0.975,-0.609c0.222,-0.158 0.447,-0.287 0.498,-0.287c0.091,0 3.849,-2.518 5.264,-3.527c2.066,-1.473 9.779,-8.082 12.312,-10.549c2.512,-2.447 4.284,-4.633 4.695,-5.793c0.089,-0.251 0.244,-0.936 0.345,-1.523c0.457,-2.666 0.925,-4.793 1.323,-6.014c0.66,-2.022 1.755,-3.883 2.735,-4.646c1.925,-1.498 3.965,-1.536 5.558,-0.103c0.75,0.675 1.192,1.439 1.591,2.754c0.246,0.809 0.296,4.452 0.077,5.603c-0.076,0.402 -0.22,1.245 -0.32,1.873c-0.359,2.256 -0.956,5.127 -1.52,7.308c-0.076,0.293 -0.281,1.15 -0.457,1.903c-0.175,0.754 -0.379,1.61 -0.453,1.903c-0.074,0.293 -0.215,0.944 -0.315,1.446c-0.1,0.502 -0.234,1.119 -0.298,1.37c-0.166,0.647 -0.411,1.922 -0.891,4.644c-0.649,3.678 -0.997,5.808 -1.541,9.44c-0.094,0.628 -0.236,1.473 -0.316,1.877c-0.352,1.784 -0.12,1.685 0.656,-0.278c1.738,-4.398 3.626,-7.971 7.725,-14.616c0.755,-1.224 3.862,-5.892 4.183,-6.284c0.118,-0.144 0.68,-0.845 1.249,-1.557c1.216,-1.521 4.595,-4.99 5.71,-5.862c0.428,-0.335 0.854,-0.678 0.947,-0.761c0.092,-0.084 0.579,-0.456 1.081,-0.826c0.502,-0.371 1.153,-0.855 1.446,-1.076c3.458,-2.61 7.469,-4.604 10.81,-5.375c3.413,-0.787 7.61,-0.775 10.658,0.032c2.729,0.722 4.834,2.042 5.85,3.668c0.962,1.539 0.916,3.816 -0.105,5.2c-0.635,0.861 -0.888,0.896 -6.184,0.853c-5.234,-0.042 -5.077,-0.059 -8.734,0.933c-4.145,1.124 -8.984,4.161 -12.993,8.155c-2.922,2.911 -7.351,8.676 -9.331,12.146c-0.157,0.275 -0.624,1.083 -1.038,1.796c-0.69,1.187 -2.429,4.653 -2.98,5.936c-0.126,0.293 -0.334,0.773 -0.462,1.066c-0.128,0.293 -0.485,1.184 -0.793,1.979c-0.308,0.796 -0.619,1.583 -0.69,1.751c-0.072,0.167 -0.233,0.613 -0.357,0.99c-0.125,0.377 -0.396,1.165 -0.604,1.751c-0.406,1.146 -1.102,3.321 -1.34,4.187c-0.08,0.293 -0.205,0.738 -0.277,0.99c-0.259,0.908 -0.851,3.067 -1.368,4.99c-0.509,1.893 -0.783,2.599 -1.129,2.904c-0.451,0.397 -1.593,0.912 -3.293,1.486c-1.909,0.644 -3.785,0.701 -4.914,0.149c-1.659,-0.811 -2.484,-2.411 -3.185,-6.18c-0.258,-1.388 -0.255,-11.529 0.005,-14.312c0.188,-2.016 0.369,-3.915 0.646,-6.775c0.15,-1.548 0.269,-2.579 0.604,-5.215c0.151,-1.189 0.252,-1.881 0.597,-4.111c0.081,-0.523 0.191,-1.25 0.244,-1.615l0.097,-0.663l-2.795,2.853c-6.338,6.469 -12.392,11.152 -19.619,15.174c-1.611,0.897 -4.319,2.255 -4.496,2.255c-0.041,0 -0.4,0.144 -0.796,0.32c-1.117,0.495 -1.268,0.553 -2.244,0.871c-3.121,1.015 -5.709,1.206 -8.412,0.62c-1.662,-0.36 -2.46,-0.689 -3.724,-1.536c-2.793,-1.871 -5.007,-5.363 -6.692,-10.552c-0.995,-3.065 -2.259,-9.271 -2.259,-11.089c0,-0.711 -0.167,-0.708 -0.557,0.012c-0.17,0.314 -0.457,0.828 -0.637,1.142c-0.18,0.314 -0.455,0.794 -0.611,1.066c-0.156,0.272 -0.49,0.844 -0.743,1.27c-0.556,0.938 -4.04,6.167 -4.605,6.914c-0.222,0.293 -1.22,1.629 -2.218,2.969c-5.428,7.286 -10.905,12.764 -16.532,16.533c-0.988,0.662 -1.83,1.204 -1.871,1.204c-0.041,0 -0.402,0.193 -0.804,0.428c-1.512,0.888 -4.639,2.073 -6.439,2.44c-2.099,0.428 -2.552,0.481 -4.127,0.481c-5.363,0 -9.171,-2.8 -10.921,-8.03c-0.432,-1.29 -0.582,-1.957 -0.954,-4.235c-0.193,-1.184 -0.096,-5.98 0.156,-7.68c0.284,-1.92 0.79,-4.771 1.23,-6.928c0.068,-0.335 0.199,-1.003 0.29,-1.484c0.092,-0.482 0.241,-1.269 0.333,-1.751c0.091,-0.482 0.226,-1.184 0.298,-1.561c0.155,-0.804 0.418,-2.412 0.623,-3.806c0.08,-0.544 0.206,-3.73 0.279,-7.08c0.144,-6.561 0.252,-7.857 0.897,-10.81c0.869,-3.977 3.57,-6.145 6.949,-5.577c2.653,0.446 4.295,2 5.03,4.759c0.257,0.967 0.293,3.989 0.064,5.449c-0.227,1.449 -0.453,2.74 -0.602,3.438c-0.071,0.335 -0.209,1.02 -0.307,1.523c-0.204,1.053 -0.494,2.408 -0.903,4.225c-0.09,0.398 -0.231,1.032 -0.315,1.408c-0.084,0.377 -0.221,0.993 -0.305,1.37c-0.084,0.377 -0.217,0.976 -0.296,1.332c-0.236,1.06 -0.774,3.348 -0.922,3.921c-0.314,1.216 -1.179,5.001 -1.756,7.689c-0.415,1.931 -0.83,5.141 -0.828,6.395c0.002,1.001 0.285,2.974 0.525,3.654c0.519,1.468 1.533,2.592 2.647,2.931c0.754,0.229 2.456,0.247 3.294,0.034c1.178,-0.299 1.831,-0.489 2.208,-0.643c0.209,-0.085 0.535,-0.215 0.723,-0.287c1.229,-0.473 3.402,-1.761 5.001,-2.965c3.381,-2.544 8.048,-7.09 11.632,-11.327c0.46,-0.544 0.875,-1.023 0.921,-1.065c0.529,-0.474 5.017,-6.816 5.017,-7.09c0,-0.052 0.129,-0.277 0.287,-0.499c0.158,-0.222 0.441,-0.678 0.63,-1.013c1.349,-2.389 2.334,-4.195 2.615,-4.796c1.058,-2.258 1.564,-3.377 1.82,-4.022c0.163,-0.412 0.427,-1.034 0.586,-1.383c0.159,-0.349 0.435,-1.004 0.613,-1.456c0.178,-0.452 0.49,-1.185 0.693,-1.629c0.203,-0.444 0.369,-0.837 0.369,-0.874c0,-0.037 0.206,-0.516 0.457,-1.065c0.251,-0.549 0.457,-1.028 0.457,-1.065c0,-0.037 0.166,-0.431 0.369,-0.874c0.203,-0.444 0.515,-1.177 0.693,-1.629c0.178,-0.452 0.454,-1.107 0.613,-1.456c0.159,-0.349 0.433,-1.005 0.608,-1.459c1.4,-3.612 3.66,-6.467 5.669,-7.161M290.624,145.571c-2.504,0.854 -5.368,3.827 -8.445,8.769c-2.234,3.587 -3.603,6.483 -4.785,10.125c-0.709,2.183 -0.749,2.322 -1.123,3.882c-0.666,2.783 -1.018,4.749 -0.876,4.891c0.08,0.08 0.532,-0.23 1.63,-1.118c0.126,-0.102 0.982,-0.776 1.904,-1.498c2.448,-1.919 3.644,-2.87 3.73,-2.966c0.042,-0.047 0.796,-0.661 1.675,-1.365c2.047,-1.639 2.94,-2.458 5.573,-5.114c2.977,-3.003 4.128,-4.612 4.783,-6.685c0.106,-0.335 0.247,-0.78 0.313,-0.99c0.351,-1.107 0.494,-3.075 0.31,-4.278c-0.328,-2.141 -1.045,-3.238 -2.425,-3.708c-0.863,-0.294 -1.268,-0.284 -2.263,0.055M-88.764,148.622c-2.822,0.468 -7.212,2.777 -10.277,5.405c-0.873,0.749 -3.539,3.441 -4.379,4.422c-2.315,2.706 -4.63,6.079 -6.688,9.744c-0.476,0.848 -2.654,5.251 -2.937,5.938c-0.069,0.167 -0.269,0.629 -0.445,1.026c-0.176,0.397 -0.32,0.792 -0.32,0.878c0,0.086 -0.06,0.275 -0.134,0.42c-0.34,0.668 -1.059,2.685 -1.398,3.918c-0.069,0.251 -0.202,0.731 -0.296,1.066c-0.773,2.752 -0.947,3.815 -0.961,5.862c-0.013,1.818 0.027,2.159 0.342,2.955c0.436,1.1 1.374,2.081 2.237,2.339c0.774,0.231 2.626,0.243 3.467,0.023c0.345,-0.09 0.901,-0.236 1.236,-0.323c1.452,-0.377 4.65,-1.77 6.471,-2.818c5.181,-2.982 8.5,-5.753 11.813,-9.865c2.343,-2.908 4.229,-6.019 5.605,-9.249c0.134,-0.314 0.34,-0.794 0.459,-1.066c0.393,-0.901 1.098,-2.949 1.455,-4.225c0.106,-0.377 0.244,-0.856 0.308,-1.066c0.238,-0.782 0.607,-2.756 0.919,-4.913c0.245,-1.695 0.234,-6.733 -0.018,-7.746c-0.307,-1.237 -0.765,-1.954 -1.524,-2.382c-0.588,-0.332 -0.886,-0.384 -2.421,-0.424c-0.963,-0.025 -2.093,0.011 -2.512,0.081" fill="#8323AB"/></g><g id="descriptor-estetica-spa" transform="translate(-0.526 0)"><path d="M22.636,234.578c0.601,-0.764 1.19,-0.351 1.957,1.372c0.26,0.585 0.565,1.268 0.679,1.519c0.113,0.251 0.457,1.108 0.765,1.903c0.308,0.796 0.613,1.583 0.678,1.751c0.065,0.167 0.19,0.476 0.277,0.685c0.087,0.209 0.856,2.162 1.709,4.339c0.853,2.177 1.606,4.096 1.675,4.263c0.069,0.167 0.445,1.127 0.837,2.132c0.391,1.005 0.816,2.067 0.943,2.36c0.127,0.293 0.283,0.67 0.347,0.837c0.157,0.41 0.383,0.956 0.662,1.599c0.127,0.293 0.446,1.075 0.709,1.738c0.851,2.148 1.915,4.264 2.45,4.873c0.655,0.747 1.885,1.307 2.869,1.307c0.848,0 1.25,0.297 0.928,0.685c-0.293,0.352 -10.067,0.341 -10.42,-0.012c-0.285,-0.285 -0.192,-0.488 0.31,-0.678c0.47,-0.178 0.464,-0.496 -0.03,-1.782c-0.847,-2.203 -1.625,-4.26 -1.888,-4.988c-0.151,-0.419 -0.446,-1.207 -0.654,-1.751l-0.379,-0.99l-4.81,-0.04l-4.81,-0.04l-0.289,0.649c-0.159,0.357 -0.427,1.026 -0.596,1.487c-0.169,0.461 -0.422,1.142 -0.561,1.515c-0.667,1.779 -1.325,3.925 -1.402,4.57c-0.077,0.648 -0.045,0.746 0.335,1.045c0.32,0.251 0.628,0.33 1.294,0.33c0.984,0 1.407,0.272 1.064,0.685c-0.284,0.343 -10.373,0.343 -10.658,0c-0.299,-0.36 0.078,-0.685 0.795,-0.685c0.88,0 2.182,-0.419 2.726,-0.877c0.396,-0.333 1.19,-1.778 1.653,-3.005c0.063,-0.167 0.192,-0.493 0.287,-0.723c0.095,-0.23 0.241,-0.59 0.325,-0.799c0.084,-0.209 0.215,-0.535 0.291,-0.723c0.076,-0.188 1.247,-3.152 2.602,-6.585c2.782,-7.051 2.631,-6.67 2.94,-7.384c0.127,-0.293 0.484,-1.184 0.793,-1.979c0.309,-0.796 0.652,-1.652 0.761,-1.903c0.109,-0.251 0.725,-1.775 1.369,-3.386c0.644,-1.611 1.305,-3.101 1.471,-3.312M181.231,234.463c0.619,-0.728 1.37,0.082 2.322,2.505c0.174,0.444 0.422,1.047 0.549,1.34c0.301,0.692 0.078,0.135 3.171,7.917c1.481,3.726 2.817,7.049 2.969,7.384c0.152,0.335 0.631,1.5 1.065,2.588c0.434,1.089 0.954,2.341 1.156,2.783c0.202,0.442 0.367,0.841 0.367,0.887c0,0.337 1.663,3.313 2.207,3.95c0.821,0.961 1.517,1.314 2.816,1.429c0.807,0.071 0.998,0.139 1.043,0.373c0.03,0.157 -0.038,0.345 -0.151,0.416c-0.327,0.207 -9.785,0.168 -10.247,-0.042c-0.512,-0.233 -0.49,-0.507 0.069,-0.837c0.251,-0.148 0.457,-0.315 0.457,-0.369c0,-0.217 -0.75,-2.414 -1.218,-3.565c-0.068,-0.167 -0.329,-0.853 -0.58,-1.523c-0.251,-0.67 -0.696,-1.835 -0.988,-2.588l-0.532,-1.37h-4.848h-4.848l-0.225,0.457c-0.124,0.251 -0.341,0.765 -0.482,1.142c-0.995,2.654 -1.274,3.427 -1.669,4.622c-0.556,1.678 -0.664,2.386 -0.41,2.688c0.304,0.362 0.987,0.607 1.693,0.607c0.765,0 1.067,0.224 0.85,0.63c-0.14,0.261 -0.464,0.278 -5.228,0.28c-4.294,0.001 -5.108,-0.033 -5.266,-0.224c-0.334,-0.403 -0.065,-0.685 0.652,-0.685c0.976,0 2.171,-0.405 2.785,-0.944c0.681,-0.597 0.942,-1.129 2.49,-5.07c0.691,-1.759 1.319,-3.351 1.394,-3.54c0.076,-0.188 0.201,-0.497 0.277,-0.685c0.076,-0.188 1.007,-2.535 2.069,-5.215c1.061,-2.68 2.034,-5.112 2.161,-5.405c0.303,-0.699 0.251,-0.569 1.95,-4.872c1.685,-4.267 1.87,-4.696 2.181,-5.062M-159.181,234.497c0.985,-0.154 4.713,-0.065 5.481,0.13c0.293,0.075 0.91,0.222 1.37,0.328c1.429,0.328 1.404,0.265 1.295,3.346c-0.112,3.172 -0.141,3.355 -0.53,3.355c-0.211,0 -0.34,-0.163 -0.453,-0.571c-0.087,-0.314 -0.159,-0.689 -0.159,-0.833c0,-0.144 -0.162,-0.627 -0.36,-1.073c-0.857,-1.939 -3.463,-3.146 -5.893,-2.729c-2.498,0.428 -3.797,1.843 -3.797,4.133c0,2.155 0.865,3.452 3.66,5.489c5.19,3.782 6.193,4.731 7.402,7.003c2.388,4.488 0.762,10.228 -3.488,12.314c-2.065,1.013 -2.801,1.157 -5.899,1.157c-2.796,-0.001 -3.448,-0.082 -5.253,-0.651c-0.419,-0.132 -0.96,-0.437 -1.202,-0.679l-0.441,-0.439l0.115,-2.768c0.159,-3.815 0.227,-4.279 0.639,-4.337c0.371,-0.053 0.392,-0.005 0.669,1.569c0.393,2.233 1.499,3.791 3.328,4.686c0.963,0.471 1.076,0.491 2.83,0.486c1.637,-0.004 1.914,-0.045 2.664,-0.395c0.933,-0.435 1.983,-1.482 2.377,-2.369c0.181,-0.408 0.261,-1.013 0.266,-2.028c0.008,-1.331 -0.031,-1.529 -0.49,-2.479c-0.603,-1.248 -1.899,-2.593 -4.063,-4.214c-4.588,-3.437 -6.328,-5.442 -7.18,-8.272c-0.29,-0.964 -0.322,-3.444 -0.056,-4.299c0.981,-3.148 3.623,-5.309 7.166,-5.862M-141.659,234.562c0.222,-0.267 0.239,-0.267 1.143,0.041c0.661,0.225 1.905,0.262 10.796,0.314c9.309,0.055 11.758,-0.01 13.204,-0.352c0.681,-0.161 0.751,0.238 0.618,3.514c-0.113,2.752 -0.133,2.893 -0.423,2.893c-0.258,0 -0.326,-0.148 -0.443,-0.976c-0.117,-0.824 -0.224,-1.062 -0.685,-1.523c-0.366,-0.366 -0.798,-0.609 -1.308,-0.735c-1.06,-0.263 -4.586,-0.524 -6.318,-0.467l-1.446,0.047v11.876c0,6.532 0.057,12.474 0.128,13.205c0.207,2.152 0.744,2.68 2.894,2.842c0.929,0.07 1.249,0.154 1.378,0.362c0.129,0.208 0.117,0.303 -0.052,0.408c-0.123,0.077 -3.002,0.132 -6.506,0.125c-5.718,-0.012 -6.307,-0.036 -6.521,-0.272c-0.343,-0.38 -0.033,-0.572 1.209,-0.747c1.545,-0.219 1.781,-0.534 2.056,-2.753c0.181,-1.461 0.4,-23.412 0.244,-24.454l-0.1,-0.668l-2.084,0.002c-3.023,0.002 -5.578,0.254 -6.295,0.62c-0.62,0.316 -1.373,1.229 -1.745,2.114c-0.25,0.596 -0.464,0.776 -0.778,0.656c-0.167,-0.064 -0.192,-0.258 -0.11,-0.861c0.206,-1.516 0.973,-4.999 1.148,-5.209M-89.989,234.629c0.706,-0.29 1,-0.222 0.988,0.23c-0.032,1.24 -0.575,5.614 -0.714,5.753c-0.327,0.327 -0.589,0.006 -0.765,-0.937c-0.203,-1.094 -0.478,-1.579 -1.065,-1.883c-0.622,-0.321 -2.873,-0.551 -5.401,-0.552c-2.2,0 -2.244,0.006 -2.326,0.342c-0.046,0.188 -0.064,2.638 -0.041,5.443l0.042,5.1l3.502,0.044c3.872,0.049 4.548,-0.048 5.252,-0.752c0.726,-0.726 0.815,-0.604 0.709,0.975c-0.358,5.345 -0.401,5.593 -0.926,5.392c-0.163,-0.063 -0.241,-0.297 -0.246,-0.743c-0.01,-0.854 -0.401,-1.623 -1.047,-2.058c-0.511,-0.343 -0.593,-0.35 -3.882,-0.31l-3.361,0.041v5.71c0,6.325 0.009,6.385 1.007,6.992c0.913,0.555 4.349,0.782 6.256,0.412c1.784,-0.345 2.561,-1.142 3.034,-3.109c0.213,-0.885 0.453,-1.182 0.837,-1.035c0.221,0.085 0.24,0.301 0.153,1.806c-0.125,2.179 -0.307,3.451 -0.573,4.007c-0.428,0.892 -0.442,0.893 -7.897,0.716c-3.726,-0.089 -7.72,-0.127 -8.875,-0.085c-1.861,0.067 -2.134,0.045 -2.397,-0.193c-0.414,-0.374 -0.127,-0.68 0.638,-0.68c0.701,0 1.616,-0.351 1.891,-0.725c0.517,-0.703 0.572,-2.072 0.585,-14.729c0.013,-12.29 0.008,-12.493 -0.297,-13.018c-0.423,-0.727 -1.152,-1.065 -2.298,-1.065c-0.655,0 -0.991,-0.07 -1.128,-0.235c-0.482,-0.581 -0.17,-0.602 8.958,-0.605c7.762,-0.002 8.855,-0.031 9.387,-0.25M-80.101,234.615c0.091,-0.146 0.239,-0.266 0.329,-0.266c0.09,0 0.536,0.12 0.991,0.266c0.756,0.244 1.769,0.266 11.865,0.266c8.329,0 11.187,-0.046 11.645,-0.188c0.539,-0.167 0.639,-0.156 0.887,0.092c0.262,0.262 0.272,0.47 0.154,3.157c-0.121,2.769 -0.138,2.879 -0.449,2.923c-0.338,0.048 -0.508,-0.289 -0.512,-1.013c-0.005,-0.916 -0.704,-1.661 -1.981,-2.11c-0.714,-0.251 -4.445,-0.535 -6.242,-0.474l-1.446,0.049v12.485c0,13.497 0.026,13.992 0.786,14.752c0.424,0.424 1.398,0.702 2.46,0.702c0.861,0 1.265,0.294 0.941,0.685c-0.285,0.344 -12.504,0.344 -12.789,0c-0.317,-0.381 0.079,-0.685 0.894,-0.686c0.429,0 0.894,-0.116 1.19,-0.296c1.164,-0.71 1.182,-0.942 1.186,-15.309l0.004,-12.333l-1.903,-0.047c-2.812,-0.07 -5.71,0.211 -6.463,0.627c-0.647,0.357 -1.756,1.69 -1.757,2.112c-0.001,0.354 -0.42,0.739 -0.69,0.635c-0.258,-0.099 -0.288,-0.696 -0.082,-1.623c0.078,-0.351 0.22,-1.084 0.316,-1.628c0.29,-1.651 0.494,-2.499 0.668,-2.779M-10.81,234.494c1.326,-0.154 6.863,-0.056 7.993,0.142c0.461,0.081 1.317,0.225 1.903,0.32c1.696,0.276 2.56,0.471 2.969,0.67l0.381,0.185l-0.051,2.275c-0.028,1.252 -0.097,2.961 -0.152,3.798c-0.095,1.428 -0.123,1.526 -0.445,1.571c-0.385,0.055 -0.386,0.054 -0.649,-1.419c-0.327,-1.824 -1.159,-3.018 -2.845,-4.083c-1.795,-1.133 -5.357,-1.712 -8.296,-1.347c-4.986,0.618 -8.162,3.781 -9.19,9.152c-0.292,1.526 -0.291,5.505 0.002,7.012c0.693,3.568 1.786,5.658 4.153,7.943c1.721,1.662 3.32,2.549 5.75,3.191c1.601,0.423 6.548,0.182 7.148,-0.349c0.08,-0.07 0.239,-0.128 0.355,-0.128c0.116,0 0.592,-0.253 1.058,-0.563c1.04,-0.69 1.832,-1.859 2.315,-3.416c0.438,-1.413 0.614,-1.624 1,-1.197c0.266,0.293 0.272,0.408 0.094,1.718c-0.385,2.834 -0.758,4.464 -1.161,5.08c-0.476,0.726 -1.902,1.174 -4.795,1.506c-2.814,0.323 -4.535,0.269 -7.765,-0.245c-6.498,-1.035 -11.308,-4.731 -13.241,-10.177c-1.163,-3.275 -1.229,-7.588 -0.167,-10.824c2.006,-6.111 6.958,-10.04 13.637,-10.816M72.016,234.44c1.017,-0.097 3.759,0.073 4.568,0.284c1.08,0.281 1.92,0.653 2.32,1.029c0.316,0.297 0.344,0.456 0.342,1.934c-0.003,1.491 -0.272,3.703 -0.523,4.301c-0.138,0.329 -0.561,0.491 -0.699,0.267c-0.059,-0.095 -0.15,-0.537 -0.202,-0.982c-0.277,-2.355 -1.917,-4.262 -4.122,-4.791c-1.555,-0.373 -3.408,0.224 -4.479,1.444c-0.77,0.877 -0.978,1.516 -0.99,3.045c-0.01,1.307 0.018,1.43 0.621,2.664c0.774,1.586 1.825,3.119 3.621,5.28c2.276,2.739 8.68,9.032 9.19,9.032c0.19,0 1.096,-1.756 1.492,-2.893c0.411,-1.18 0.65,-2.33 0.656,-3.154c0.005,-0.666 -0.067,-0.876 -0.443,-1.305c-0.419,-0.477 -0.794,-0.649 -2.139,-0.979c-0.384,-0.094 -0.533,-0.215 -0.533,-0.43c0,-0.278 0.13,-0.302 1.903,-0.349c2.563,-0.067 4.277,0.181 4.79,0.695c0.703,0.703 0.44,2.482 -0.728,4.913c-0.79,1.645 -2.651,4.524 -3.035,4.694c-0.232,0.103 -0.104,0.589 0.232,0.873c1.82,1.544 4.621,3.449 6.269,4.263c1.087,0.537 2.542,0.963 3.324,0.973c0.482,0.006 0.691,0.357 0.412,0.693c-0.26,0.313 -7.249,0.32 -8.551,0.009c-1.442,-0.345 -2.926,-1.146 -5.069,-2.735c-0.121,-0.089 -0.643,0.17 -1.54,0.766c-2.388,1.585 -3.53,2.033 -6.732,2.642c-1.615,0.307 -4.376,0.073 -6.197,-0.524c-2.883,-0.946 -4.991,-2.894 -6.04,-5.58c-0.264,-0.676 -0.323,-1.174 -0.336,-2.801c-0.013,-1.724 0.031,-2.105 0.343,-2.953c0.802,-2.18 1.989,-3.675 4.382,-5.523c0.866,-0.668 1.574,-1.25 1.574,-1.292c0,-0.042 -0.239,-0.534 -0.531,-1.092c-1.283,-2.455 -1.629,-4.021 -1.311,-5.926c0.272,-1.629 0.813,-2.665 2.015,-3.858c1.517,-1.506 3.58,-2.391 6.145,-2.635M123.021,234.439c1.149,-0.167 4.6,0.049 5.856,0.367c2.009,0.509 1.833,0.176 1.833,3.476c0,2.165 -0.05,2.927 -0.206,3.141c-0.346,0.473 -0.632,0.177 -0.84,-0.869c-0.522,-2.626 -2.487,-4.151 -5.348,-4.151c-2.159,0 -3.723,0.849 -4.486,2.436c-0.361,0.75 -0.481,2.283 -0.239,3.068c0.535,1.743 1.208,2.486 4.269,4.716c5.088,3.707 6.518,5.264 7.447,8.113c0.381,1.169 0.441,4.032 0.111,5.266c-0.865,3.227 -3.155,5.341 -6.872,6.342c-1.177,0.317 -5.781,0.272 -7.232,-0.07c-1.673,-0.395 -2.71,-0.934 -2.853,-1.484c-0.133,-0.509 0.02,-6.312 0.18,-6.815c0.126,-0.398 0.643,-0.444 0.746,-0.067c0.04,0.147 0.156,0.746 0.257,1.332c0.258,1.495 0.899,2.776 1.824,3.64c1.875,1.754 4.772,2.153 7.231,0.997c1.448,-0.681 2.188,-1.654 2.535,-3.334c0.154,-0.744 0.153,-1.107 -0.005,-1.875c-0.371,-1.806 -1.317,-3.073 -3.668,-4.91c-4.485,-3.505 -5.151,-4.09 -6.183,-5.426c-1.552,-2.008 -2.195,-3.741 -2.192,-5.904c0.004,-2.761 1.114,-4.8 3.475,-6.384c1.166,-0.782 2.78,-1.377 4.364,-1.607M-179.659,234.695c0.167,-0.102 0.536,-0.188 0.818,-0.19l0.514,-0.005l-0.083,0.799c-0.046,0.44 -0.161,1.633 -0.257,2.653c-0.209,2.22 -0.323,2.699 -0.66,2.763c-0.308,0.059 -0.56,-0.523 -0.56,-1.292c0,-0.624 -0.452,-1.333 -1.046,-1.64c-0.633,-0.327 -3.208,-0.564 -5.577,-0.513l-2.132,0.046l-0.04,5.443l-0.04,5.443h3.416c3.837,0 4.746,-0.133 5.458,-0.798c0.654,-0.611 0.933,-0.457 0.834,0.458c-0.043,0.396 -0.196,1.885 -0.339,3.309c-0.143,1.424 -0.317,2.649 -0.387,2.723c-0.316,0.334 -0.57,-0.066 -0.677,-1.064c-0.221,-2.064 -0.511,-2.191 -4.976,-2.191h-3.336l0.043,5.748c0.047,6.224 0.057,6.306 0.898,6.928c0.6,0.444 2.139,0.712 4.093,0.711c2.42,0 3.876,-0.384 4.534,-1.196c0.301,-0.371 0.742,-1.384 0.95,-2.178c0.225,-0.864 0.502,-1.155 0.835,-0.878c0.289,0.24 0.289,0.981 -0.002,3.121c-0.319,2.342 -0.367,2.55 -0.686,2.974l-0.283,0.376l-3.244,-0.008c-7.234,-0.018 -15.285,-0.163 -15.471,-0.278c-0.109,-0.067 -0.177,-0.232 -0.152,-0.366c0.033,-0.17 0.359,-0.301 1.088,-0.435c1.78,-0.329 1.868,-0.511 2.073,-4.261c0.221,-4.041 0.208,-21.697 -0.017,-23.057c-0.26,-1.576 -0.994,-2.121 -2.854,-2.121c-0.574,0 -0.811,-0.065 -0.878,-0.239c-0.224,-0.585 -0.014,-0.599 9.054,-0.599c6.643,0 8.859,-0.045 9.089,-0.186M-46.513,235.033c0.162,-0.196 1.022,-0.228 6.014,-0.228c5.166,0 5.847,0.028 6.028,0.245c0.173,0.208 0.16,0.277 -0.087,0.457c-0.159,0.117 -0.575,0.212 -0.923,0.212c-0.758,0 -1.568,0.492 -1.889,1.148c-0.357,0.729 -0.441,3.348 -0.443,13.697c-0.002,9.934 0.094,12.926 0.437,13.657c0.262,0.558 1.069,0.909 2.271,0.987c1.537,0.1 1.714,0.159 1.658,0.548l-0.048,0.337l-6.263,0.036c-5.392,0.032 -6.289,0.005 -6.451,-0.19c-0.291,-0.35 0.081,-0.683 0.763,-0.683c0.627,0 1.534,-0.325 1.779,-0.638c0.493,-0.629 0.539,-1.582 0.614,-12.747c0.086,-12.608 0.031,-14.376 -0.473,-15.124c-0.418,-0.62 -1.012,-0.912 -2.032,-0.998c-0.895,-0.075 -1.259,-0.348 -0.955,-0.715M141.069,234.954c0.176,-0.109 6.718,-0.074 13.088,0.07c2.337,0.053 2.985,0.118 3.806,0.386c1.498,0.488 2.259,0.914 3.222,1.805c1.424,1.316 2.106,3.096 2.106,5.493c0,0.737 -0.061,1.539 -0.134,1.782c-0.074,0.243 -0.225,0.75 -0.336,1.127c-0.669,2.28 -2.627,4.489 -4.915,5.545c-2.325,1.074 -6.028,1.34 -6.157,0.443c-0.054,-0.377 0.086,-0.435 1.417,-0.585c2.541,-0.288 4.476,-2.321 5.044,-5.3c0.264,-1.383 0.262,-2.053 -0.007,-3.341c-0.558,-2.666 -1.986,-4.352 -4.487,-5.298c-0.713,-0.27 -3.252,-0.274 -3.575,-0.005c-0.226,0.187 -0.248,1.303 -0.247,12.33c0.001,13.409 0.053,14.344 0.833,15.124c0.387,0.387 1.467,0.689 2.744,0.768c0.538,0.033 0.609,0.082 0.609,0.418v0.381h-6.226c-5.726,0 -6.239,-0.021 -6.391,-0.262c-0.246,-0.389 0.004,-0.55 1.19,-0.766c0.817,-0.149 1.105,-0.275 1.336,-0.584c0.579,-0.777 0.643,-2.242 0.647,-14.983c0.005,-13.306 0.044,-12.699 -0.872,-13.377c-0.303,-0.224 -0.747,-0.334 -1.597,-0.394c-0.994,-0.07 -1.186,-0.128 -1.232,-0.37c-0.03,-0.157 0.03,-0.339 0.134,-0.403M180.649,242.609c0,0.021 -0.178,0.518 -0.394,1.104c-0.217,0.586 -0.451,1.236 -0.521,1.446c-0.07,0.209 -0.411,1.169 -0.757,2.132c-0.347,0.963 -0.758,2.128 -0.913,2.588c-0.155,0.461 -0.459,1.317 -0.675,1.903c-0.645,1.75 -0.974,1.599 3.49,1.599c2.135,0 3.882,-0.018 3.882,-0.039c0,-0.117 -0.335,-1.105 -0.761,-2.245c-0.266,-0.712 -0.54,-1.465 -0.609,-1.675c-0.069,-0.209 -0.341,-0.963 -0.606,-1.675c-0.264,-0.712 -0.582,-1.602 -0.706,-1.979c-0.124,-0.377 -0.286,-0.822 -0.359,-0.99c-0.073,-0.167 -0.292,-0.733 -0.486,-1.256c-0.195,-0.523 -0.405,-0.952 -0.469,-0.952c-0.063,0 -0.115,0.017 -0.115,0.039M21.897,243.141c-0.098,0.23 -0.281,0.727 -0.408,1.104c-0.127,0.377 -0.445,1.268 -0.709,1.979c-0.263,0.712 -0.605,1.671 -0.759,2.132c-0.154,0.461 -0.496,1.42 -0.759,2.132c-0.771,2.085 -0.911,2.501 -0.914,2.702c-0.002,0.147 0.877,0.19 3.89,0.19h3.893l-0.097,-0.343c-0.053,-0.188 -0.229,-0.702 -0.391,-1.142c-0.162,-0.44 -0.431,-1.176 -0.599,-1.637c-0.167,-0.461 -0.442,-1.214 -0.609,-1.675c-0.167,-0.461 -0.442,-1.214 -0.609,-1.675c-0.167,-0.461 -0.442,-1.214 -0.609,-1.675c-0.645,-1.775 -0.952,-2.512 -1.046,-2.512c-0.054,0 -0.177,0.188 -0.275,0.419M66.231,250.507c-1.646,1.822 -2.335,5.205 -1.601,7.856c0.807,2.913 2.606,4.683 5.558,5.469c2.216,0.59 5.648,-0.253 7.482,-1.838l0.575,-0.497l-0.602,-0.511c-0.995,-0.844 -6.78,-6.644 -7.714,-7.733c-0.478,-0.557 -1.046,-1.219 -1.262,-1.47c-0.217,-0.251 -0.645,-0.782 -0.951,-1.18c-0.307,-0.398 -0.639,-0.723 -0.737,-0.723c-0.099,0 -0.435,0.283 -0.747,0.628" fill="#147B80"/></g></g></g>
</svg>
